<?xml version="1.0" encoding="UTF-8" standalone="no"?>
<!-- Created with Inkscape (http://www.inkscape.org/) -->

<svg
   width="8.8914995in"
   height="3.1317289in"
   viewBox="0 0 225.84409 79.545913"
   version="1.1"
   id="svg5"
   inkscape:version="1.2.1 (9c6d41e, 2022-07-14)"
   sodipodi:docname="ppi.svg"
   xmlns:inkscape="http://www.inkscape.org/namespaces/inkscape"
   xmlns:sodipodi="http://sodipodi.sourceforge.net/DTD/sodipodi-0.dtd"
   xmlns:xlink="http://www.w3.org/1999/xlink"
   xmlns="http://www.w3.org/2000/svg"
   xmlns:svg="http://www.w3.org/2000/svg">
  <sodipodi:namedview
     id="namedview7"
     pagecolor="#ffffff"
     bordercolor="#000000"
     borderopacity="0"
     inkscape:showpageshadow="2"
     inkscape:pageopacity="0"
     inkscape:pagecheckerboard="true"
     inkscape:deskcolor="#d1d1d1"
     inkscape:document-units="mm"
     showgrid="false"
     inkscape:zoom="0.76930354"
     inkscape:cx="460.15647"
     inkscape:cy="89.691515"
     inkscape:window-width="1728"
     inkscape:window-height="946"
     inkscape:window-x="0"
     inkscape:window-y="38"
     inkscape:window-maximized="0"
     inkscape:current-layer="layer1" />
  <defs
     id="defs2">
    <inkscape:path-effect
       effect="powermask"
       id="path-effect20252"
       is_visible="true"
       lpeversion="1"
       uri="#mask-powermask-path-effect20252"
       invert="false"
       hide_mask="false"
       background="true"
       background_color="#ffffffff" />
    <linearGradient
       inkscape:collect="always"
       id="linearGradient10686">
      <stop
         style="stop-color:#75a75b;stop-opacity:1;"
         offset="0"
         id="stop10682" />
      <stop
         style="stop-color:#8ca357;stop-opacity:1;"
         offset="0.48320955"
         id="stop11865" />
      <stop
         style="stop-color:#cc994b;stop-opacity:1;"
         offset="1"
         id="stop10684" />
    </linearGradient>
    <linearGradient
       inkscape:collect="always"
       id="linearGradient9952">
      <stop
         style="stop-color:#33b267;stop-opacity:1;"
         offset="0"
         id="stop9948" />
      <stop
         style="stop-color:#ee9344;stop-opacity:1;"
         offset="1"
         id="stop9950" />
    </linearGradient>
    <linearGradient
       inkscape:collect="always"
       id="linearGradient9944">
      <stop
         style="stop-color:#33b267;stop-opacity:1;"
         offset="0"
         id="stop9940" />
      <stop
         style="stop-color:#ee9344;stop-opacity:1;"
         offset="1"
         id="stop9942" />
    </linearGradient>
    <inkscape:perspective
       sodipodi:type="inkscape:persp3d"
       inkscape:vp_x="-26.117651 : 8.4529478 : 0"
       inkscape:vp_y="0 : 665.58644 : 0"
       inkscape:vp_z="26.11765 : 8.4529478 : 0"
       inkscape:persp3d-origin="47.637108 : 5.8255913 : 1"
       id="perspective427" />
    <linearGradient
       inkscape:collect="always"
       xlink:href="#linearGradient9944"
       id="linearGradient9946"
       x1="14.482602"
       y1="22.039755"
       x2="79.721466"
       y2="11.468572"
       gradientUnits="userSpaceOnUse"
       gradientTransform="translate(6.3500003)" />
    <linearGradient
       inkscape:collect="always"
       xlink:href="#linearGradient9952"
       id="linearGradient9954"
       x1="5.5281024"
       y1="32.820309"
       x2="72.913193"
       y2="33.411301"
       gradientUnits="userSpaceOnUse"
       gradientTransform="translate(6.3500003)" />
    <linearGradient
       inkscape:collect="always"
       xlink:href="#linearGradient10686"
       id="linearGradient10688"
       x1="18.234577"
       y1="34.033985"
       x2="65.766663"
       y2="33.700211"
       gradientUnits="userSpaceOnUse"
       gradientTransform="translate(6.3500003)" />
    <linearGradient
       inkscape:collect="always"
       xlink:href="#linearGradient10686-1"
       id="linearGradient10688-6"
       x1="18.234577"
       y1="34.033985"
       x2="65.766663"
       y2="33.700211"
       gradientUnits="userSpaceOnUse"
       gradientTransform="translate(-15.72607,69.173431)" />
    <linearGradient
       inkscape:collect="always"
       id="linearGradient10686-1">
      <stop
         style="stop-color:#7d6868;stop-opacity:1;"
         offset="0"
         id="stop10682-1" />
      <stop
         style="stop-color:#1f271b;stop-opacity:1;"
         offset="0.48320955"
         id="stop11865-8" />
      <stop
         style="stop-color:#a49273;stop-opacity:1;"
         offset="1"
         id="stop10684-1" />
    </linearGradient>
    <filter
       inkscape:collect="always"
       style="color-interpolation-filters:sRGB"
       id="filter9402"
       x="-0.34407552"
       y="-0.17581878"
       width="1.688151"
       height="1.3516361">
      <feGaussianBlur
         inkscape:collect="always"
         stdDeviation="0.72549542"
         id="feGaussianBlur9404" />
    </filter>
    <filter
       inkscape:collect="always"
       style="color-interpolation-filters:sRGB"
       id="filter9402-3"
       x="-0.20778585"
       y="-0.17581878"
       width="1.4155717"
       height="1.3516361">
      <feGaussianBlur
         inkscape:collect="always"
         stdDeviation="0.72549542"
         id="feGaussianBlur9404-7" />
    </filter>
    <filter
       inkscape:collect="always"
       style="color-interpolation-filters:sRGB"
       id="filter9402-3-0"
       x="-0.32431004"
       y="-0.17581878"
       width="1.64862"
       height="1.3516361">
      <feGaussianBlur
         inkscape:collect="always"
         stdDeviation="0.72549542"
         id="feGaussianBlur9404-7-2" />
    </filter>
    <mask
       maskUnits="userSpaceOnUse"
       id="mask19788">
      <rect
         style="fill:#ffffff;fill-opacity:1;stroke:none;stroke-width:1.14082;stroke-linecap:butt;stroke-linejoin:round;stroke-dasharray:none;stroke-opacity:1;stop-color:#000000"
         id="rect19790"
         width="76.1045"
         height="81.487396"
         x="3.2266896"
         y="-13.419429" />
    </mask>
    <filter
       id="mask-powermask-path-effect19808_inverse"
       inkscape:label="filtermask-powermask-path-effect19808"
       style="color-interpolation-filters:sRGB"
       height="100"
       width="100"
       x="-50"
       y="-50">
      <feColorMatrix
         id="mask-powermask-path-effect19808_primitive1"
         values="1"
         type="saturate"
         result="fbSourceGraphic" />
      <feColorMatrix
         id="mask-powermask-path-effect19808_primitive2"
         values="-1 0 0 0 1 0 -1 0 0 1 0 0 -1 0 1 0 0 0 1 0 "
         in="fbSourceGraphic" />
    </filter>
    <filter
       id="mask-powermask-path-effect20031_inverse"
       inkscape:label="filtermask-powermask-path-effect20031"
       style="color-interpolation-filters:sRGB"
       height="100"
       width="100"
       x="-50"
       y="-50">
      <feColorMatrix
         id="mask-powermask-path-effect20031_primitive1"
         values="1"
         type="saturate"
         result="fbSourceGraphic" />
      <feColorMatrix
         id="mask-powermask-path-effect20031_primitive2"
         values="-1 0 0 0 1 0 -1 0 0 1 0 0 -1 0 1 0 0 0 1 0 "
         in="fbSourceGraphic" />
    </filter>
    <filter
       id="mask-powermask-path-effect20049_inverse"
       inkscape:label="filtermask-powermask-path-effect20049"
       style="color-interpolation-filters:sRGB"
       height="100"
       width="100"
       x="-50"
       y="-50">
      <feColorMatrix
         id="mask-powermask-path-effect20049_primitive1"
         values="1"
         type="saturate"
         result="fbSourceGraphic" />
      <feColorMatrix
         id="mask-powermask-path-effect20049_primitive2"
         values="-1 0 0 0 1 0 -1 0 0 1 0 0 -1 0 1 0 0 0 1 0 "
         in="fbSourceGraphic" />
    </filter>
    <filter
       id="mask-powermask-path-effect20071_inverse"
       inkscape:label="filtermask-powermask-path-effect20071"
       style="color-interpolation-filters:sRGB"
       height="100"
       width="100"
       x="-50"
       y="-50">
      <feColorMatrix
         id="mask-powermask-path-effect20071_primitive1"
         values="1"
         type="saturate"
         result="fbSourceGraphic" />
      <feColorMatrix
         id="mask-powermask-path-effect20071_primitive2"
         values="-1 0 0 0 1 0 -1 0 0 1 0 0 -1 0 1 0 0 0 1 0 "
         in="fbSourceGraphic" />
    </filter>
    <mask
       maskUnits="userSpaceOnUse"
       id="mask-powermask-path-effect20252">
      <path
         id="mask-powermask-path-effect20252_box"
         style="fill:#ffffff;fill-opacity:1"
         d="M 13.163242,8.3369922 H 49.275224 V 72.960141 H 13.163242 Z" />
      <g
         id="g20250"
         style="fill:#000000;fill-opacity:1">
        <path
           id="rect20246"
           d="M 3.2266896,68.06797 H 79.331189 v 81.4874 H 3.2266896 Z"
           style="fill:#000000;fill-opacity:1;stroke:none;stroke-width:1.14082;stroke-linecap:butt;stroke-linejoin:round;stroke-dasharray:none;stroke-opacity:1;stop-color:#000000" />
        <path
           id="rect20248"
           transform="rotate(63.849206)"
           d="m 21.63629,-43.945614 h 59.003585 v 7.010532 H 21.63629 Z"
           style="fill:#000000;fill-opacity:1;stroke:none;stroke-width:0.344001;stroke-linecap:butt;stroke-linejoin:round;stroke-dasharray:none;stroke-opacity:1;stop-color:#000000" />
      </g>
    </mask>
    <filter
       id="mask-powermask-path-effect20252_inverse"
       inkscape:label="filtermask-powermask-path-effect20252"
       style="color-interpolation-filters:sRGB"
       height="100"
       width="100"
       x="-50"
       y="-50">
      <feColorMatrix
         id="mask-powermask-path-effect20252_primitive1"
         values="1"
         type="saturate"
         result="fbSourceGraphic" />
      <feColorMatrix
         id="mask-powermask-path-effect20252_primitive2"
         values="-1 0 0 0 1 0 -1 0 0 1 0 0 -1 0 1 0 0 0 1 0 "
         in="fbSourceGraphic" />
    </filter>
    <filter
       inkscape:collect="always"
       style="color-interpolation-filters:sRGB"
       id="filter21951"
       x="-0.081748581"
       y="-0.078230604"
       width="1.1634972"
       height="1.0843335">
      <feGaussianBlur
         inkscape:collect="always"
         stdDeviation="2.3912248"
         id="feGaussianBlur21953" />
    </filter>
  </defs>
  <g
     inkscape:label="Layer 1"
     inkscape:groupmode="layer"
     id="layer1"
     transform="translate(0.23393972,3.8386181)">
    <g
       id="g21942"
       style="mix-blend-mode:normal;fill:#000000;fill-opacity:0.461121;filter:url(#filter21951)"
       transform="translate(2.2001417,1.9003838)">
      <g
         id="g21922"
         style="fill:#000000;fill-opacity:0.461121" />
      <g
         id="g21928"
         style="fill:#000000;fill-opacity:0.461121" />
      <g
         id="g21934"
         mask="url(#mask-powermask-path-effect20252)"
         style="fill:#000000;fill-opacity:0.461121" />
      <g
         id="g21940"
         mask="url(#mask19788)"
         style="fill:#000000;fill-opacity:0.461121">
        <path
           id="path21938"
           style="color:#000000;fill:#000000;fill-opacity:0.461121;stroke-linecap:round"
           d="M 38.861328,0.13085937 A 2.5,2.5 0 0 0 37.419922,1.390625 L 3.5644531,69.75 A 2.5,2.5 0 0 0 4.6953125,73.099609 2.5,2.5 0 0 0 8.0449219,71.96875 L 41.900391,3.609375 A 2.5,2.5 0 0 0 40.769531,0.25976563 2.5,2.5 0 0 0 38.861328,0.13085937 Z M 5.8045821,70.859634 39.66041,2.5 M 43.785156,9.3378906 14.164063,69.759766 18.652344,71.960937 48.275391,11.537109 Z M 16.407988,70.859634 46.030478,10.437499 M 41.146484,0.84570313 A 1.5,1.5 0 0 0 40.001953,0.91601563 1.5,1.5 0 0 0 39.310547,2.921875 l 31.347656,64.246094 a 1.5,1.5 0 0 0 2.005859,0.689453 1.5,1.5 0 0 0 0.691407,-2.00586 L 42.007812,1.6054687 A 1.5,1.5 0 0 0 41.146484,0.84570313 Z M 72.007208,66.509233 40.659062,2.2632538 M 72.082031,66.005859 c -20.366977,0.05986 -42.204499,0.05534 -62.5742185,0.0625 a 1,1 0 0 0 -1,1 1,1 0 0 0 1.0019531,1 c 20.3688934,-0.0072 42.2066224,-0.0026 62.5781254,-0.0625 a 1,1 0 0 0 0.998046,-1.001953 1,1 0 0 0 -1.003906,-0.998047 z m 0.0031,1.000028 c -20.36926,0.05987 -42.207012,0.05492 -62.5763391,0.06208" />
      </g>
    </g>
    <g
       id="g21916">
      <g
         id="path4582-93-1"
         style="stroke-width:2;stroke-dasharray:none">
        <path
           style="color:#000000;fill:#ffffff;stroke-width:2;stroke-linecap:round;stroke-dasharray:none"
           d="m 72.085088,67.005887 c -20.36926,0.05987 -42.207012,0.05492 -62.5763391,0.06208"
           id="path21171" />
        <path
           style="color:#000000;fill:url(#linearGradient10688-6);stroke-width:2;stroke-linecap:round;stroke-dasharray:none"
           d="m 72.082031,66.005859 c -20.366977,0.05986 -42.204499,0.05534 -62.5742185,0.0625 a 1,1 0 0 0 -1,1 1,1 0 0 0 1.0019531,1 c 20.3688934,-0.0072 42.2066224,-0.0026 62.5781254,-0.0625 a 1,1 0 0 0 0.998046,-1.001953 1,1 0 0 0 -1.003906,-0.998047 z"
           id="path21173" />
      </g>
      <g
         id="path4582-93">
        <path
           style="color:#000000;fill:#482020;stroke-width:3;stroke-linecap:round"
           d="M 72.007208,66.509233 40.659062,2.2632538"
           id="path21165" />
        <path
           style="color:#000000;fill:url(#linearGradient10688);stroke-linecap:round"
           d="M 41.146484,0.84570313 A 1.5,1.5 0 0 0 40.001953,0.91601563 1.5,1.5 0 0 0 39.310547,2.921875 l 31.347656,64.246094 a 1.5,1.5 0 0 0 2.005859,0.689453 1.5,1.5 0 0 0 0.691407,-2.00586 L 42.007812,1.6054687 A 1.5,1.5 0 0 0 41.146484,0.84570313 Z"
           id="path21167" />
      </g>
      <g
         id="path4582-9"
         mask="url(#mask-powermask-path-effect20252)">
        <path
           style="color:#000000;fill:#482020;stroke-width:5"
           d="M 16.407988,70.859634 46.030478,10.437499"
           id="path21159" />
        <path
           style="color:#000000;fill:url(#linearGradient9954)"
           d="M 43.785156,9.3378906 14.164063,69.759766 18.652344,71.960937 48.275391,11.537109 Z"
           id="path21161" />
      </g>
      <g
         id="path4582"
         mask="url(#mask19788)">
        <path
           style="color:#000000;fill:#482020;stroke-width:5;stroke-linecap:round"
           d="M 5.8045821,70.859634 39.66041,2.5"
           id="path21151" />
        <path
           style="color:#000000;fill:url(#linearGradient9946);stroke-linecap:round"
           d="M 38.861328,0.13085937 A 2.5,2.5 0 0 0 37.419922,1.390625 L 3.5644531,69.75 A 2.5,2.5 0 0 0 4.6953125,73.099609 2.5,2.5 0 0 0 8.0449219,71.96875 L 41.900391,3.609375 A 2.5,2.5 0 0 0 40.769531,0.25976563 2.5,2.5 0 0 0 38.861328,0.13085937 Z"
           id="path21153" />
      </g>
    </g>
    <g
       id="g15162"
       transform="translate(10.583333)">
      <g
         id="g13140"
         transform="translate(-41.813765,45.830654)">
        <path
           d="m 246.74997,-45.901074 0.69144,-4.642557 -6.37117,0.790222 -5.08705,25.978562 7.75405,-0.790222 2.76578,-14.37217 c 0.74084,-3.556001 2.27189,-8.001002 5.58095,-8.001002 1.67922,0 2.42005,1.185333 2.42005,2.864556 0,3.654779 -2.96333,12.14967 -2.96333,16.100782 0,3.012723 1.82739,4.395612 4.49439,4.395612 2.17311,0 4.39561,-0.938389 5.03767,-3.012723 -1.48167,-0.148167 -1.92617,-1.037167 -1.92617,-2.321278 0,-3.259668 2.91395,-11.013725 2.91395,-15.804449 0,-4.099278 -2.27189,-6.025446 -6.56873,-6.025446 -3.65478,0 -6.96383,1.38289 -8.74183,4.840113 z"
           style="font-style:italic;font-weight:bold;font-size:49.3889px;font-family:Sansita;-inkscape-font-specification:Sansita;text-align:center;letter-spacing:10.5833px;text-anchor:middle;fill:#5a5a5a;fill-opacity:0.904159;stroke:#4f4f4f;stroke-width:6;stroke-linejoin:round;stroke-opacity:0.900542;filter:url(#filter9402)"
           id="path11985"
           transform="matrix(0.6,0,0,0.6,62.313414,-7.6014748)" />
        <path
           d="m 209.72832,-35.777101 0.41486,-2.785531 -3.82269,0.474133 -3.05223,15.587116 4.65243,-0.474132 1.65946,-8.623291 c 0.4445,-2.133598 1.36313,-4.800595 3.34856,-4.800595 1.00754,0 1.45204,0.7112 1.45204,1.718732 0,2.192864 -1.778,7.289792 -1.778,9.660456 0,1.807631 1.09643,2.637364 2.69663,2.637364 1.30386,0 2.63736,-0.563033 3.02259,-1.807632 -0.88899,-0.0889 -1.15569,-0.622299 -1.15569,-1.392765 0,-1.955798 1.74836,-6.608226 1.74836,-9.482656 0,-2.459564 -1.36313,-3.615263 -3.94123,-3.615263 -2.19286,0 -4.17829,0.829733 -5.24509,2.904064 z"
           style="font-style:italic;font-weight:bold;font-size:29.6333px;font-family:Sansita;-inkscape-font-specification:Sansita;text-align:center;letter-spacing:6.34998px;text-anchor:middle;fill:#6d8972;stroke:#6d8972;stroke-width:2.4;stroke-linejoin:round"
           id="path12006" />
        <path
           d="m 209.72832,-35.777101 0.41486,-2.785531 -3.82269,0.474133 -3.05223,15.587116 4.65243,-0.474132 1.65946,-8.623291 c 0.4445,-2.133598 1.36313,-4.800595 3.34856,-4.800595 1.00754,0 1.45204,0.7112 1.45204,1.718732 0,2.192864 -1.778,7.289792 -1.778,9.660456 0,1.807631 1.09643,2.637364 2.69663,2.637364 1.30386,0 2.63736,-0.563033 3.02259,-1.807632 -0.88899,-0.0889 -1.15569,-0.622299 -1.15569,-1.392765 0,-1.955798 1.74836,-6.608226 1.74836,-9.482656 0,-2.459564 -1.36313,-3.615263 -3.94123,-3.615263 -2.19286,0 -4.17829,0.829733 -5.24509,2.904064 z"
           style="font-style:italic;font-weight:bold;font-size:29.6333px;font-family:Sansita;-inkscape-font-specification:Sansita;text-align:center;letter-spacing:6.34998px;text-anchor:middle;fill:#ffffff;stroke-width:0.2064"
           id="path12027" />
      </g>
      <g
         id="g13145"
         transform="translate(-33.876266,45.830654)">
        <path
           d="m 214.33684,-50.741187 c -9.87778,0 -14.91545,8.54428 -14.91545,17.631838 0,5.432779 2.81517,9.532058 9.53206,9.532058 9.87778,0 14.86606,-8.643058 14.86606,-17.730616 0,-5.38339 -2.71639,-9.43328 -9.48267,-9.43328 z m -0.79022,2.963334 c 2.2225,0 2.81516,1.728612 2.81516,4.198057 0,6.815668 -1.97555,17.039171 -6.61811,17.039171 -2.27189,0 -2.86455,-1.778001 -2.86455,-4.198057 0,-6.815668 2.02494,-17.039171 6.6675,-17.039171 z"
           style="font-style:italic;font-weight:bold;font-size:49.3889px;font-family:Sansita;-inkscape-font-specification:Sansita;text-align:center;letter-spacing:10.5833px;text-anchor:middle;fill:#5a5a5a;fill-opacity:0.904159;stroke:#4f4f4f;stroke-width:6;stroke-linejoin:round;stroke-opacity:0.900542;filter:url(#filter9402)"
           id="path11983"
           transform="matrix(0.6,0,0,0.6,62.313414,-7.6014748)" />
        <path
           d="m 190.28047,-38.681165 c -5.92666,0 -8.94926,5.126561 -8.94926,10.579089 0,3.259663 1.6891,5.719227 5.71923,5.719227 5.92666,0 8.91962,-5.185828 8.91962,-10.638355 0,-3.23003 -1.62983,-5.659961 -5.68959,-5.659961 z m -0.47414,1.777998 c 1.3335,0 1.6891,1.037166 1.6891,2.518831 0,4.089395 -1.18533,10.223489 -3.97086,10.223489 -1.36313,0 -1.71873,-1.066799 -1.71873,-2.518831 0,-4.089395 1.21496,-10.223489 4.00049,-10.223489 z"
           style="font-style:italic;font-weight:bold;font-size:29.6333px;font-family:Sansita;-inkscape-font-specification:Sansita;text-align:center;letter-spacing:6.34998px;text-anchor:middle;fill:#6d8972;stroke:#6d8972;stroke-width:2.4;stroke-linejoin:round"
           id="path12004" />
        <path
           d="m 190.28047,-38.681165 c -5.92666,0 -8.94926,5.126561 -8.94926,10.579089 0,3.259663 1.6891,5.719227 5.71923,5.719227 5.92666,0 8.91962,-5.185828 8.91962,-10.638355 0,-3.23003 -1.62983,-5.659961 -5.68959,-5.659961 z m -0.47414,1.777998 c 1.3335,0 1.6891,1.037166 1.6891,2.518831 0,4.089395 -1.18533,10.223489 -3.97086,10.223489 -1.36313,0 -1.71873,-1.066799 -1.71873,-2.518831 0,-4.089395 1.21496,-10.223489 4.00049,-10.223489 z"
           style="font-style:italic;font-weight:bold;font-size:29.6333px;font-family:Sansita;-inkscape-font-specification:Sansita;text-align:center;letter-spacing:6.34998px;text-anchor:middle;fill:#ffffff;stroke-width:0.2064"
           id="path12025" />
      </g>
      <g
         id="g13150"
         transform="translate(-25.938767,45.830654)">
        <path
           d="m 184.59074,-60.964689 c -2.56822,0 -4.64255,1.234722 -4.64255,3.60539 0,2.271889 1.87678,3.457223 4.445,3.457223 2.56822,0 4.59317,-1.185334 4.59317,-3.556001 0,-2.27189 -1.82739,-3.506612 -4.39562,-3.506612 z m -1.53105,30.127229 3.90172,-19.706171 -7.75406,0.790222 -2.61761,13.137448 c -0.39511,2.024945 -1.38289,6.815668 -1.38289,8.840613 0,2.71639 1.82739,4.198057 4.49439,4.198057 2.17311,0 4.39562,-0.938389 5.03767,-3.012723 -1.3335,-0.09878 -1.92617,-0.987778 -1.92617,-2.173112 0,-0.592667 0.14817,-1.531056 0.24695,-2.074334 z"
           style="font-style:italic;font-weight:bold;font-size:49.3889px;font-family:Sansita;-inkscape-font-specification:Sansita;text-align:center;letter-spacing:10.5833px;text-anchor:middle;fill:#5a5a5a;fill-opacity:0.904159;stroke:#4f4f4f;stroke-width:6;stroke-linejoin:round;stroke-opacity:0.900542;filter:url(#filter9402)"
           id="path11981"
           transform="matrix(0.6,0,0,0.6,62.313414,-7.6014748)" />
        <path
           d="m 172.43281,-44.815258 c -1.54093,0 -2.78553,0.740832 -2.78553,2.163231 0,1.363132 1.12607,2.074331 2.667,2.074331 1.54093,0 2.7559,-0.711199 2.7559,-2.133598 0,-1.363132 -1.09644,-2.103964 -2.63737,-2.103964 z m -0.91863,18.076313 2.34103,-11.823687 -4.65243,0.474133 -1.57056,7.882458 c -0.23707,1.214966 -0.82974,4.089396 -0.82974,5.304361 0,1.629832 1.09644,2.518831 2.69664,2.518831 1.30386,0 2.63736,-0.563033 3.02259,-1.807632 -0.8001,-0.05927 -1.1557,-0.592666 -1.1557,-1.303865 0,-0.3556 0.0889,-0.918632 0.14817,-1.244599 z"
           style="font-style:italic;font-weight:bold;font-size:29.6333px;font-family:Sansita;-inkscape-font-specification:Sansita;text-align:center;letter-spacing:6.34998px;text-anchor:middle;fill:#6d8972;stroke:#6d8972;stroke-width:2.4;stroke-linejoin:round"
           id="path12002" />
        <path
           d="m 172.43281,-44.815258 c -1.54093,0 -2.78553,0.740832 -2.78553,2.163231 0,1.363132 1.12607,2.074331 2.667,2.074331 1.54093,0 2.7559,-0.711199 2.7559,-2.133598 0,-1.363132 -1.09644,-2.103964 -2.63737,-2.103964 z m -0.91863,18.076313 2.34103,-11.823687 -4.65243,0.474133 -1.57056,7.882458 c -0.23707,1.214966 -0.82974,4.089396 -0.82974,5.304361 0,1.629832 1.09644,2.518831 2.69664,2.518831 1.30386,0 2.63736,-0.563033 3.02259,-1.807632 -0.8001,-0.05927 -1.1557,-0.592666 -1.1557,-1.303865 0,-0.3556 0.0889,-0.918632 0.14817,-1.244599 z"
           style="font-style:italic;font-weight:bold;font-size:29.6333px;font-family:Sansita;-inkscape-font-specification:Sansita;text-align:center;letter-spacing:6.34998px;text-anchor:middle;fill:#ffffff;stroke-width:0.2064"
           id="path12023" />
      </g>
      <g
         id="g13155"
         transform="translate(-18.001268,45.830654)">
        <path
           d="m 161.31454,-49.753409 1.08656,-5.136445 h -1.92617 c -3.06211,2.617611 -6.6675,4.691945 -10.17411,5.877279 l -0.19756,1.481667 h 3.21028 l -1.43228,7.210779 c -0.54328,2.765779 -2.12372,9.877781 -2.12372,12.495392 0,2.765779 1.72861,4.247446 4.74133,4.247446 2.2225,0 4.8895,-1.037167 5.77851,-3.210279 -2.02495,0.493889 -3.06212,-0.246944 -2.91395,-2.173111 0.0494,-0.790223 0.19756,-1.728612 0.34572,-2.568223 l 3.16089,-16.002004 h 3.85234 l 0.4445,-2.222501 z"
           style="font-style:italic;font-weight:bold;font-size:49.3889px;font-family:Sansita;-inkscape-font-specification:Sansita;text-align:center;letter-spacing:10.5833px;text-anchor:middle;fill:#5a5a5a;fill-opacity:0.904159;stroke:#4f4f4f;stroke-width:6;stroke-linejoin:round;stroke-opacity:0.900542;filter:url(#filter9402)"
           id="path11979"
           transform="matrix(0.6,0,0,0.6,62.313414,-7.6014748)" />
        <path
           d="m 158.46709,-38.088499 0.65194,-3.081863 h -1.1557 c -1.83727,1.570565 -4.0005,2.815164 -6.10446,3.526363 l -0.11853,0.888999 h 1.92616 l -0.85937,4.326462 c -0.32596,1.659465 -1.27423,5.92666 -1.27423,7.497225 0,1.659465 1.03717,2.548464 2.8448,2.548464 1.3335,0 2.9337,-0.6223 3.4671,-1.926165 -1.21497,0.296333 -1.83727,-0.148166 -1.74837,-1.303865 0.0296,-0.474133 0.11853,-1.037166 0.20743,-1.540932 l 1.89653,-9.601189 h 2.3114 l 0.2667,-1.333499 z"
           style="font-style:italic;font-weight:bold;font-size:29.6333px;font-family:Sansita;-inkscape-font-specification:Sansita;text-align:center;letter-spacing:6.34998px;text-anchor:middle;fill:#6d8972;stroke:#6d8972;stroke-width:2.4;stroke-linejoin:round"
           id="path12000" />
        <path
           d="m 158.46709,-38.088499 0.65194,-3.081863 h -1.1557 c -1.83727,1.570565 -4.0005,2.815164 -6.10446,3.526363 l -0.11853,0.888999 h 1.92616 l -0.85937,4.326462 c -0.32596,1.659465 -1.27423,5.92666 -1.27423,7.497225 0,1.659465 1.03717,2.548464 2.8448,2.548464 1.3335,0 2.9337,-0.6223 3.4671,-1.926165 -1.21497,0.296333 -1.83727,-0.148166 -1.74837,-1.303865 0.0296,-0.474133 0.11853,-1.037166 0.20743,-1.540932 l 1.89653,-9.601189 h 2.3114 l 0.2667,-1.333499 z"
           style="font-style:italic;font-weight:bold;font-size:29.6333px;font-family:Sansita;-inkscape-font-specification:Sansita;text-align:center;letter-spacing:6.34998px;text-anchor:middle;fill:#ffffff;stroke-width:0.2064"
           id="path12021" />
      </g>
      <g
         id="g13160"
         transform="translate(-10.063769,45.830654)">
        <path
           d="m 130.28428,-50.741187 c -9.58145,0 -15.06362,8.050391 -15.06362,17.039171 0,6.914446 3.45723,10.124725 9.43328,10.124725 5.43278,0 10.17412,-2.71639 10.17412,-6.76628 0,-1.3335 -0.54328,-2.2225 -1.778,-2.765778 -0.98778,2.617612 -3.40784,4.346223 -6.17362,4.346223 -3.1115,0 -4.14866,-2.173111 -4.14866,-5.185834 0,-4.543779 2.37066,-13.878281 6.81566,-13.878281 1.38289,0 1.87678,0.889 1.87678,2.271889 0,1.185334 -0.34572,2.963334 -0.79022,4.148668 0.54328,0.4445 1.53106,0.543278 2.17311,0.543278 2.56822,0 4.98828,-1.432279 4.98828,-4.642557 0,-3.704168 -3.21028,-5.235224 -7.50711,-5.235224 z"
           style="font-style:italic;font-weight:bold;font-size:49.3889px;font-family:Sansita;-inkscape-font-specification:Sansita;text-align:center;letter-spacing:10.5833px;text-anchor:middle;fill:#5a5a5a;fill-opacity:0.904159;stroke:#4f4f4f;stroke-width:6;stroke-linejoin:round;stroke-opacity:0.900542;filter:url(#filter9402)"
           id="path11977"
           transform="matrix(0.6,0,0,0.6,62.313414,-7.6014748)" />
        <path
           d="m 139.84896,-38.681165 c -5.74886,0 -9.03816,4.830228 -9.03816,10.223489 0,4.148662 2.07433,6.074827 5.65996,6.074827 3.25966,0 6.10446,-1.629832 6.10446,-4.059763 0,-0.800099 -0.32597,-1.333498 -1.0668,-1.659464 -0.59266,1.570565 -2.0447,2.60773 -3.70416,2.60773 -1.8669,0 -2.4892,-1.303865 -2.4892,-3.111497 0,-2.726263 1.4224,-8.326957 4.0894,-8.326957 0.82973,0 1.12606,0.533399 1.12606,1.363132 0,0.711199 -0.20743,1.777998 -0.47413,2.489197 0.32597,0.2667 0.91863,0.325966 1.30386,0.325966 1.54094,0 2.99297,-0.859365 2.99297,-2.78553 0,-2.222497 -1.92617,-3.14113 -4.50426,-3.14113 z"
           style="font-style:italic;font-weight:bold;font-size:29.6333px;font-family:Sansita;-inkscape-font-specification:Sansita;text-align:center;letter-spacing:6.34998px;text-anchor:middle;fill:#6d8972;stroke:#6d8972;stroke-width:2.4;stroke-linejoin:round"
           id="path11998" />
        <path
           d="m 139.84896,-38.681165 c -5.74886,0 -9.03816,4.830228 -9.03816,10.223489 0,4.148662 2.07433,6.074827 5.65996,6.074827 3.25966,0 6.10446,-1.629832 6.10446,-4.059763 0,-0.800099 -0.32597,-1.333498 -1.0668,-1.659464 -0.59266,1.570565 -2.0447,2.60773 -3.70416,2.60773 -1.8669,0 -2.4892,-1.303865 -2.4892,-3.111497 0,-2.726263 1.4224,-8.326957 4.0894,-8.326957 0.82973,0 1.12606,0.533399 1.12606,1.363132 0,0.711199 -0.20743,1.777998 -0.47413,2.489197 0.32597,0.2667 0.91863,0.325966 1.30386,0.325966 1.54094,0 2.99297,-0.859365 2.99297,-2.78553 0,-2.222497 -1.92617,-3.14113 -4.50426,-3.14113 z"
           style="font-style:italic;font-weight:bold;font-size:29.6333px;font-family:Sansita;-inkscape-font-specification:Sansita;text-align:center;letter-spacing:6.34998px;text-anchor:middle;fill:#ffffff;stroke-width:0.2064"
           id="path12019" />
      </g>
      <g
         id="g13165"
         transform="translate(-2.1262703,45.830654)">
        <path
           d="m 100.39,-60.964689 c -2.568223,0 -4.642557,1.234722 -4.642557,3.60539 0,2.271889 1.876778,3.457223 4.444997,3.457223 2.56823,0 4.59317,-1.185334 4.59317,-3.556001 0,-2.27189 -1.82739,-3.506612 -4.39561,-3.506612 z m -1.531056,30.127229 3.901726,-19.706171 -7.75406,0.790222 -2.617612,13.137448 c -0.395111,2.024945 -1.382889,6.815668 -1.382889,8.840613 0,2.71639 1.827389,4.198057 4.49439,4.198057 2.173111,0 4.395612,-0.938389 5.037671,-3.012723 -1.333504,-0.09878 -1.926171,-0.987778 -1.926171,-2.173112 0,-0.592667 0.148167,-1.531056 0.246945,-2.074334 z"
           style="font-style:italic;font-weight:bold;font-size:49.3889px;font-family:Sansita;-inkscape-font-specification:Sansita;text-align:center;letter-spacing:10.5833px;text-anchor:middle;fill:#5a5a5a;fill-opacity:0.904159;stroke:#4f4f4f;stroke-width:6;stroke-linejoin:round;stroke-opacity:0.900542;filter:url(#filter9402)"
           id="path11975"
           transform="matrix(0.6,0,0,0.6,62.313414,-7.6014748)" />
        <path
           d="m 121.91241,-44.815258 c -1.54093,0 -2.78553,0.740832 -2.78553,2.163231 0,1.363132 1.12607,2.074331 2.667,2.074331 1.54093,0 2.75589,-0.711199 2.75589,-2.133598 0,-1.363132 -1.09643,-2.103964 -2.63736,-2.103964 z m -0.91863,18.076313 2.34103,-11.823687 -4.65243,0.474133 -1.57056,7.882458 c -0.23707,1.214966 -0.82974,4.089396 -0.82974,5.304361 0,1.629832 1.09644,2.518831 2.69663,2.518831 1.30387,0 2.63737,-0.563033 3.0226,-1.807632 -0.8001,-0.05927 -1.1557,-0.592666 -1.1557,-1.303865 0,-0.3556 0.0889,-0.918632 0.14817,-1.244599 z"
           style="font-style:italic;font-weight:bold;font-size:29.6333px;font-family:Sansita;-inkscape-font-specification:Sansita;text-align:center;letter-spacing:6.34998px;text-anchor:middle;fill:#6d8972;stroke:#6d8972;stroke-width:2.4;stroke-linejoin:round"
           id="path11996" />
        <path
           d="m 121.91241,-44.815258 c -1.54093,0 -2.78553,0.740832 -2.78553,2.163231 0,1.363132 1.12607,2.074331 2.667,2.074331 1.54093,0 2.75589,-0.711199 2.75589,-2.133598 0,-1.363132 -1.09643,-2.103964 -2.63736,-2.103964 z m -0.91863,18.076313 2.34103,-11.823687 -4.65243,0.474133 -1.57056,7.882458 c -0.23707,1.214966 -0.82974,4.089396 -0.82974,5.304361 0,1.629832 1.09644,2.518831 2.69663,2.518831 1.30387,0 2.63737,-0.563033 3.0226,-1.807632 -0.8001,-0.05927 -1.1557,-0.592666 -1.1557,-1.303865 0,-0.3556 0.0889,-0.918632 0.14817,-1.244599 z"
           style="font-style:italic;font-weight:bold;font-size:29.6333px;font-family:Sansita;-inkscape-font-specification:Sansita;text-align:center;letter-spacing:6.34998px;text-anchor:middle;fill:#ffffff;stroke-width:0.2064"
           id="path12017" />
      </g>
      <path
         d="m 74.101078,-30.83746 5.531557,-29.090062 -7.655279,0.790222 -1.679223,8.98878 c -1.234723,-0.395111 -2.420056,-0.592667 -3.802945,-0.592667 -9.630836,0 -14.569726,8.643058 -14.569726,17.681227 0,5.778501 2.271889,9.482669 7.556502,9.482669 2.864556,0 5.38339,-1.037167 7.16139,-2.815168 0.4445,1.876779 2.173112,2.815168 4.148668,2.815168 2.074334,0 4.346223,-0.938389 4.93889,-3.012723 -1.284111,-0.09878 -1.876778,-0.987778 -1.876778,-2.173112 0,-0.592667 0.148167,-1.481667 0.246944,-2.074334 z m -4.593167,-15.755059 -2.321279,12.890503 c -0.543278,3.062112 -1.876778,7.062613 -5.037668,7.062613 -2.173111,0 -2.765778,-2.173112 -2.765778,-4.445001 0,-7.013224 1.975556,-16.693449 6.865057,-16.693449 0.987778,0 2.222501,0.395112 3.259668,1.185334 z"
         style="font-style:italic;font-weight:bold;font-size:49.3889px;font-family:Sansita;-inkscape-font-specification:Sansita;text-align:center;letter-spacing:10.5833px;text-anchor:middle;fill:#5a5a5a;fill-opacity:0.904159;stroke:#4f4f4f;stroke-width:6;stroke-linejoin:round;stroke-opacity:0.900542;filter:url(#filter9402)"
         id="path11973"
         transform="matrix(0.6,0,0,0.6,68.124615,38.229179)" />
      <g
         id="g13169"
         transform="translate(5.8112287,45.830654)">
        <path
           d="m 106.13907,-26.738945 3.31893,-17.454014 -4.59317,0.474133 -1.00753,5.393261 c -0.74083,-0.237067 -1.45203,-0.3556 -2.28176,-0.3556 -5.778496,0 -8.741826,5.185828 -8.741826,10.608722 0,3.467096 1.363132,5.689594 4.533895,5.689594 1.718731,0 3.230031,-0.6223 4.296831,-1.689098 0.2667,1.126065 1.30386,1.689098 2.48919,1.689098 1.2446,0 2.60774,-0.563033 2.96333,-1.807632 -0.77046,-0.05927 -1.12606,-0.592666 -1.12606,-1.303865 0,-0.3556 0.0889,-0.888999 0.14817,-1.244599 z m -2.7559,-9.453023 -1.39277,7.734292 c -0.32596,1.837265 -1.12606,4.237562 -3.022593,4.237562 -1.303865,0 -1.659465,-1.303865 -1.659465,-2.666997 0,-4.207929 1.185332,-10.016056 4.119028,-10.016056 0.59267,0 1.3335,0.237067 1.9558,0.711199 z"
           style="font-style:italic;font-weight:bold;font-size:29.6333px;font-family:Sansita;-inkscape-font-specification:Sansita;text-align:center;letter-spacing:6.34998px;text-anchor:middle;fill:#6d8972;stroke:#6d8972;stroke-width:2.4;stroke-linejoin:round"
           id="path11994" />
        <path
           d="m 106.13907,-26.738945 3.31893,-17.454014 -4.59317,0.474133 -1.00753,5.393261 c -0.74083,-0.237067 -1.45203,-0.3556 -2.28176,-0.3556 -5.778496,0 -8.741826,5.185828 -8.741826,10.608722 0,3.467096 1.363132,5.689594 4.533895,5.689594 1.718731,0 3.230031,-0.6223 4.296831,-1.689098 0.2667,1.126065 1.30386,1.689098 2.48919,1.689098 1.2446,0 2.60774,-0.563033 2.96333,-1.807632 -0.77046,-0.05927 -1.12606,-0.592666 -1.12606,-1.303865 0,-0.3556 0.0889,-0.888999 0.14817,-1.244599 z m -2.7559,-9.453023 -1.39277,7.734292 c -0.32596,1.837265 -1.12606,4.237562 -3.022593,4.237562 -1.303865,0 -1.659465,-1.303865 -1.659465,-2.666997 0,-4.207929 1.185332,-10.016056 4.119028,-10.016056 0.59267,0 1.3335,0.237067 1.9558,0.711199 z"
           style="font-style:italic;font-weight:bold;font-size:29.6333px;font-family:Sansita;-inkscape-font-specification:Sansita;text-align:center;letter-spacing:6.34998px;text-anchor:middle;fill:#ffffff;stroke-width:0.2064"
           id="path12015" />
      </g>
      <g
         id="g13174"
         transform="translate(13.748728,45.830654)">
        <path
           d="m 33.439997,-50.741187 c -10.421058,0 -15.310559,8.643058 -15.310559,17.08856 0,6.963835 3.802945,10.075336 9.729613,10.075336 5.630335,0 9.87778,-2.864556 9.87778,-6.519335 0,-0.938389 -0.345722,-1.778001 -1.234722,-2.173112 -1.234723,2.27189 -3.901724,3.506612 -6.568724,3.506612 -3.210279,0 -4.296835,-1.827389 -4.296835,-4.988279 0,-0.691444 0.04939,-1.629833 0.148167,-2.518834 0.740834,0 1.778001,0.04939 2.568223,0 7.704669,-0.197555 12.59417,-3.309056 12.59417,-8.643057 0,-4.543779 -3.506612,-5.827891 -7.507113,-5.827891 z m -1.086556,2.667001 c 1.481667,0 2.173112,0.987778 2.173112,2.765778 0,4.296835 -3.852335,6.76628 -8.396113,6.76628 0.987778,-5.482168 3.210278,-9.532058 6.223001,-9.532058 z"
           style="font-style:italic;font-weight:bold;font-size:49.3889px;font-family:Sansita;-inkscape-font-specification:Sansita;text-align:center;letter-spacing:10.5833px;text-anchor:middle;fill:#5a5a5a;fill-opacity:0.904159;stroke:#4f4f4f;stroke-width:6;stroke-linejoin:round;stroke-opacity:0.900542;filter:url(#filter9402)"
           id="path11971"
           transform="matrix(0.6,0,0,0.6,62.313414,-7.6014748)" />
        <path
           d="m 81.742442,-38.681165 c -6.252626,0 -9.186323,5.185828 -9.186323,10.253122 0,4.178296 2.281764,6.045194 5.83776,6.045194 3.378197,0 5.926661,-1.718732 5.926661,-3.911596 0,-0.563033 -0.207433,-1.066799 -0.740833,-1.303865 -0.740832,1.363132 -2.341031,2.103964 -3.941229,2.103964 -1.926164,0 -2.578097,-1.096432 -2.578097,-2.992963 0,-0.414867 0.02963,-0.977899 0.0889,-1.511299 0.444499,0 1.066799,0.02963 1.540931,0 4.622795,-0.118533 7.556492,-1.985431 7.556492,-5.185827 0,-2.726264 -2.103964,-3.49673 -4.504262,-3.49673 z m -0.651932,1.600198 c 0.888999,0 1.303865,0.592666 1.303865,1.659465 0,2.578097 -2.311397,4.059763 -5.037661,4.059763 0.592666,-3.289297 1.926164,-5.719228 3.733796,-5.719228 z"
           style="font-style:italic;font-weight:bold;font-size:29.6333px;font-family:Sansita;-inkscape-font-specification:Sansita;text-align:center;letter-spacing:6.34998px;text-anchor:middle;fill:#6d8972;stroke:#6d8972;stroke-width:2.4;stroke-linejoin:round"
           id="path11992" />
        <path
           d="m 81.742442,-38.681165 c -6.252626,0 -9.186323,5.185828 -9.186323,10.253122 0,4.178296 2.281764,6.045194 5.83776,6.045194 3.378197,0 5.926661,-1.718732 5.926661,-3.911596 0,-0.563033 -0.207433,-1.066799 -0.740833,-1.303865 -0.740832,1.363132 -2.341031,2.103964 -3.941229,2.103964 -1.926164,0 -2.578097,-1.096432 -2.578097,-2.992963 0,-0.414867 0.02963,-0.977899 0.0889,-1.511299 0.444499,0 1.066799,0.02963 1.540931,0 4.622795,-0.118533 7.556492,-1.985431 7.556492,-5.185827 0,-2.726264 -2.103964,-3.49673 -4.504262,-3.49673 z m -0.651932,1.600198 c 0.888999,0 1.303865,0.592666 1.303865,1.659465 0,2.578097 -2.311397,4.059763 -5.037661,4.059763 0.592666,-3.289297 1.926164,-5.719228 3.733796,-5.719228 z"
           style="font-style:italic;font-weight:bold;font-size:29.6333px;font-family:Sansita;-inkscape-font-specification:Sansita;text-align:center;letter-spacing:6.34998px;text-anchor:middle;fill:#ffffff;stroke-width:0.2064"
           id="path12013" />
      </g>
      <g
         id="g13179"
         transform="translate(21.686227,45.830654)">
        <path
           d="m -4.8504444,-45.901074 0.6914446,-4.642557 -6.3711682,0.790222 -4.988279,25.978562 7.9516131,-0.790222 2.4200561,-14.125226 c 0.7408335,-4.247445 2.1731116,-8.247946 4.74133447,-8.247946 1.18533362,0 1.62983373,0.889 1.62983373,2.024945 0,1.629833 -0.74083351,3.852334 -1.72861153,5.136445 0.54327791,0.691445 1.62983373,0.938389 2.56822283,0.938389 3.4078342,0 5.7785014,-2.864556 5.7785014,-6.568723 0,-3.210279 -1.7780004,-5.334002 -5.3833902,-5.334002 -3.30905633,0 -5.9266681,1.82739 -7.3095573,4.840113 z"
           style="font-style:italic;font-weight:bold;font-size:49.3889px;font-family:Sansita;-inkscape-font-specification:Sansita;text-align:center;letter-spacing:10.5833px;text-anchor:middle;fill:#5a5a5a;fill-opacity:0.904159;stroke:#4f4f4f;stroke-width:6;stroke-linejoin:round;stroke-opacity:0.900542;filter:url(#filter9402)"
           id="path11969"
           transform="matrix(0.6,0,0,0.6,62.313414,-7.6014748)" />
        <path
           d="m 58.768199,-35.777101 0.414866,-2.785531 -3.822696,0.474133 -2.992963,15.587116 4.770961,-0.474132 1.452032,-8.475124 c 0.444499,-2.548464 1.303865,-4.948762 2.844797,-4.948762 0.711199,0 0.977899,0.5334 0.977899,1.214966 0,0.977899 -0.4445,2.311397 -1.037166,3.081863 0.325966,0.414866 0.977899,0.563033 1.540932,0.563033 2.044698,0 3.467096,-1.718732 3.467096,-3.941229 0,-1.926165 -1.066799,-3.200397 -3.23003,-3.200397 -1.985431,0 -3.555996,1.096432 -4.385728,2.904064 z"
           style="font-style:italic;font-weight:bold;font-size:29.6333px;font-family:Sansita;-inkscape-font-specification:Sansita;text-align:center;letter-spacing:6.34998px;text-anchor:middle;fill:#6d8972;stroke:#6d8972;stroke-width:2.4;stroke-linejoin:round"
           id="path11990" />
        <path
           d="m 58.768199,-35.777101 0.414866,-2.785531 -3.822696,0.474133 -2.992963,15.587116 4.770961,-0.474132 1.452032,-8.475124 c 0.444499,-2.548464 1.303865,-4.948762 2.844797,-4.948762 0.711199,0 0.977899,0.5334 0.977899,1.214966 0,0.977899 -0.4445,2.311397 -1.037166,3.081863 0.325966,0.414866 0.977899,0.563033 1.540932,0.563033 2.044698,0 3.467096,-1.718732 3.467096,-3.941229 0,-1.926165 -1.066799,-3.200397 -3.23003,-3.200397 -1.985431,0 -3.555996,1.096432 -4.385728,2.904064 z"
           style="font-style:italic;font-weight:bold;font-size:29.6333px;font-family:Sansita;-inkscape-font-specification:Sansita;text-align:center;letter-spacing:6.34998px;text-anchor:middle;fill:#ffffff;stroke-width:0.2064"
           id="path12011" />
      </g>
      <g
         id="g13184"
         transform="translate(29.623726,45.830654)">
        <path
           d="m -54.105186,-24.565069 h 8.247947 l 5.679723,-29.485174 c 0.839612,-0.148167 1.876779,-0.246944 2.617612,-0.246944 3.309057,0 4.691946,1.629833 4.691946,5.136445 0,4.93889 -2.71639,8.050391 -6.865057,8.346724 -0.543278,0.09878 -1.037167,0.09878 -1.580445,0.04939 0.592667,2.074334 3.062112,2.667001 5.38339,2.667001 6.371168,0 10.865558,-4.346223 10.865558,-11.013725 0,-7.210779 -5.284612,-8.445502 -14.075837,-8.445502 -3.506612,0 -5.580945,0.197556 -8.692446,0.395111 z"
           style="font-style:italic;font-weight:bold;font-size:49.3889px;font-family:Sansita;-inkscape-font-specification:Sansita;text-align:center;letter-spacing:10.5833px;text-anchor:middle;fill:#5a5a5a;fill-opacity:0.904159;stroke:#4f4f4f;stroke-width:6;stroke-linejoin:round;stroke-opacity:0.900542;filter:url(#filter9402)"
           id="path11967"
           transform="matrix(0.6,0,0,0.6,62.313414,-7.6014748)" />
        <path
           d="m 29.215385,-22.975515 h 4.948761 l 3.40783,-17.691081 c 0.503766,-0.0889 1.126065,-0.148166 1.570564,-0.148166 1.985432,0 2.815164,0.977898 2.815164,3.081863 0,2.96333 -1.629831,4.830228 -4.119029,5.008028 -0.325966,0.05927 -0.622299,0.05927 -0.948265,0.02963 0.355599,1.244599 1.837264,1.600198 3.230029,1.600198 3.822696,0 6.519327,-2.60773 6.519327,-6.608226 0,-4.326462 -3.170764,-5.067294 -8.445491,-5.067294 -2.103964,0 -3.348563,0.118533 -5.215461,0.237066 z"
           style="font-style:italic;font-weight:bold;font-size:29.6333px;font-family:Sansita;-inkscape-font-specification:Sansita;text-align:center;letter-spacing:6.34998px;text-anchor:middle;fill:#6d8972;stroke:#6d8972;stroke-width:2.4;stroke-linejoin:round"
           id="path11988" />
        <path
           d="m 29.215385,-22.975515 h 4.948761 l 3.40783,-17.691081 c 0.503766,-0.0889 1.126065,-0.148166 1.570564,-0.148166 1.985432,0 2.815164,0.977898 2.815164,3.081863 0,2.96333 -1.629831,4.830228 -4.119029,5.008028 -0.325966,0.05927 -0.622299,0.05927 -0.948265,0.02963 0.355599,1.244599 1.837264,1.600198 3.230029,1.600198 3.822696,0 6.519327,-2.60773 6.519327,-6.608226 0,-4.326462 -3.170764,-5.067294 -8.445491,-5.067294 -2.103964,0 -3.348563,0.118533 -5.215461,0.237066 z"
           style="font-style:italic;font-weight:bold;font-size:29.6333px;font-family:Sansita;-inkscape-font-specification:Sansita;text-align:center;letter-spacing:6.34998px;text-anchor:middle;fill:#ffffff;stroke-width:0.2064"
           id="path12009" />
      </g>
    </g>
    <g
       id="g15192"
       transform="translate(86.862788,132.41604)">
      <g
         id="g13084">
        <path
           d="m 226.23256,-30.83746 5.53156,-29.090062 -7.65528,0.790222 -1.67922,8.98878 c -1.23473,-0.395111 -2.42006,-0.592667 -3.80295,-0.592667 -9.63083,0 -14.56972,8.643058 -14.56972,17.681227 0,5.778501 2.27188,9.482669 7.5565,9.482669 2.86455,0 5.38339,-1.037167 7.16139,-2.815168 0.4445,1.876779 2.17311,2.815168 4.14867,2.815168 2.07433,0 4.34622,-0.938389 4.93889,-3.012723 -1.28412,-0.09878 -1.87678,-0.987778 -1.87678,-2.173112 0,-0.592667 0.14816,-1.481667 0.24694,-2.074334 z m -4.59317,-15.755059 -2.32127,12.890503 c -0.54328,3.062112 -1.87678,7.062613 -5.03767,7.062613 -2.17311,0 -2.76578,-2.173112 -2.76578,-4.445001 0,-7.013224 1.97556,-16.693449 6.86506,-16.693449 0.98777,0 2.2225,0.395112 3.25966,1.185334 z"
           style="font-style:italic;font-weight:bold;font-size:49.3889px;font-family:Sansita;-inkscape-font-specification:Sansita;text-align:center;letter-spacing:10.5833px;text-anchor:middle;fill:#4f4f4f;fill-opacity:0.9;stroke:#4f4f4f;stroke-width:6;stroke-linejoin:round;stroke-opacity:0.9;filter:url(#filter9402-3)"
           id="path12042"
           transform="matrix(0.6,0,0,0.6,-31.908201,-74.400237)" />
        <path
           d="m 103.19627,-93.537706 3.31893,-17.454014 -4.59316,0.47413 -1.00753,5.39326 c -0.74084,-0.23706 -1.452036,-0.3556 -2.281769,-0.3556 -5.778493,0 -8.741823,5.18583 -8.741823,10.608726 0,3.467096 1.363131,5.689593 4.533895,5.689593 1.718731,0 3.230029,-0.622299 4.296828,-1.689098 0.2667,1.126066 1.303869,1.689098 2.489199,1.689098 1.2446,0 2.60773,-0.563032 2.96333,-1.807631 -0.77047,-0.05927 -1.12607,-0.592666 -1.12607,-1.303865 0,-0.3556 0.0889,-0.888999 0.14817,-1.244599 z m -2.7559,-9.453024 -1.392762,7.734293 c -0.325967,1.837264 -1.126066,4.237562 -3.022597,4.237562 -1.303865,0 -1.659465,-1.303866 -1.659465,-2.666997 0,-4.207929 1.185332,-10.016058 4.119029,-10.016058 0.592666,0 1.333498,0.23707 1.955795,0.7112 z"
           style="font-style:italic;font-weight:bold;font-size:29.6333px;font-family:Sansita;-inkscape-font-specification:Sansita;text-align:center;letter-spacing:6.34998px;text-anchor:middle;fill:#6d8972;stroke:#6d8972;stroke-width:2.4;stroke-linejoin:round"
           id="path12057" />
        <path
           d="m 103.19627,-93.537706 3.31893,-17.454014 -4.59316,0.47413 -1.00753,5.39326 c -0.74084,-0.23706 -1.452036,-0.3556 -2.281769,-0.3556 -5.778493,0 -8.741823,5.18583 -8.741823,10.608726 0,3.467096 1.363131,5.689593 4.533895,5.689593 1.718731,0 3.230029,-0.622299 4.296828,-1.689098 0.2667,1.126066 1.303869,1.689098 2.489199,1.689098 1.2446,0 2.60773,-0.563032 2.96333,-1.807631 -0.77047,-0.05927 -1.12607,-0.592666 -1.12607,-1.303865 0,-0.3556 0.0889,-0.888999 0.14817,-1.244599 z m -2.7559,-9.453024 -1.392762,7.734293 c -0.325967,1.837264 -1.126066,4.237562 -3.022597,4.237562 -1.303865,0 -1.659465,-1.303866 -1.659465,-2.666997 0,-4.207929 1.185332,-10.016058 4.119029,-10.016058 0.592666,0 1.333498,0.23707 1.955795,0.7112 z"
           style="font-style:italic;font-weight:bold;font-size:29.6333px;font-family:Sansita;-inkscape-font-specification:Sansita;text-align:center;letter-spacing:6.34998px;text-anchor:middle;fill:#ffffff;stroke-width:0.2064"
           id="path12072" />
      </g>
      <g
         id="g13079"
         transform="translate(7.9374992)">
        <path
           d="m 185.57148,-50.741187 c -10.42106,0 -15.31056,8.643058 -15.31056,17.08856 0,6.963835 3.80295,10.075336 9.72961,10.075336 5.63034,0 9.87778,-2.864556 9.87778,-6.519335 0,-0.938389 -0.34572,-1.778001 -1.23472,-2.173112 -1.23472,2.27189 -3.90172,3.506612 -6.56872,3.506612 -3.21028,0 -4.29684,-1.827389 -4.29684,-4.988279 0,-0.691444 0.0494,-1.629833 0.14817,-2.518834 0.74083,0 1.778,0.04939 2.56822,0 7.70467,-0.197555 12.59417,-3.309056 12.59417,-8.643057 0,-4.543779 -3.50661,-5.827891 -7.50711,-5.827891 z m -1.08656,2.667001 c 1.48167,0 2.17312,0.987778 2.17312,2.765778 0,4.296835 -3.85234,6.76628 -8.39612,6.76628 0.98778,-5.482168 3.21028,-9.532058 6.223,-9.532058 z"
           style="font-style:italic;font-weight:bold;font-size:49.3889px;font-family:Sansita;-inkscape-font-specification:Sansita;text-align:center;letter-spacing:10.5833px;text-anchor:middle;fill:#4f4f4f;fill-opacity:0.9;stroke:#4f4f4f;stroke-width:6;stroke-linejoin:round;stroke-opacity:0.9;filter:url(#filter9402-3)"
           id="path12040"
           transform="matrix(0.6,0,0,0.6,-31.908201,-74.400237)" />
        <path
           d="m 78.799646,-105.47993 c -6.252626,0 -9.186323,5.18583 -9.186323,10.253126 0,4.178295 2.281764,6.045193 5.83776,6.045193 3.378196,0 5.92666,-1.718731 5.92666,-3.911595 0,-0.563033 -0.207433,-1.066799 -0.740832,-1.303866 -0.740833,1.363132 -2.341031,2.103965 -3.941229,2.103965 -1.926165,0 -2.578097,-1.096432 -2.578097,-2.992964 0,-0.414866 0.02963,-0.977899 0.0889,-1.511298 0.4445,0 1.066799,0.02963 1.540932,0 4.622795,-0.118533 7.556492,-1.985431 7.556492,-5.185831 0,-2.72626 -2.103965,-3.49673 -4.504262,-3.49673 z m -0.651933,1.6002 c 0.889,0 1.303866,0.59267 1.303866,1.65947 0,2.578094 -2.311398,4.059759 -5.037661,4.059759 0.592666,-3.289299 1.926164,-5.719229 3.733795,-5.719229 z"
           style="font-style:italic;font-weight:bold;font-size:29.6333px;font-family:Sansita;-inkscape-font-specification:Sansita;text-align:center;letter-spacing:6.34998px;text-anchor:middle;fill:#6d8972;stroke:#6d8972;stroke-width:2.4;stroke-linejoin:round"
           id="path12055" />
        <path
           d="m 78.799646,-105.47993 c -6.252626,0 -9.186323,5.18583 -9.186323,10.253126 0,4.178295 2.281764,6.045193 5.83776,6.045193 3.378196,0 5.92666,-1.718731 5.92666,-3.911595 0,-0.563033 -0.207433,-1.066799 -0.740832,-1.303866 -0.740833,1.363132 -2.341031,2.103965 -3.941229,2.103965 -1.926165,0 -2.578097,-1.096432 -2.578097,-2.992964 0,-0.414866 0.02963,-0.977899 0.0889,-1.511298 0.4445,0 1.066799,0.02963 1.540932,0 4.622795,-0.118533 7.556492,-1.985431 7.556492,-5.185831 0,-2.72626 -2.103965,-3.49673 -4.504262,-3.49673 z m -0.651933,1.6002 c 0.889,0 1.303866,0.59267 1.303866,1.65947 0,2.578094 -2.311398,4.059759 -5.037661,4.059759 0.592666,-3.289299 1.926164,-5.719229 3.733795,-5.719229 z"
           style="font-style:italic;font-weight:bold;font-size:29.6333px;font-family:Sansita;-inkscape-font-specification:Sansita;text-align:center;letter-spacing:6.34998px;text-anchor:middle;fill:#ffffff;stroke-width:0.2064"
           id="path12070" />
      </g>
      <g
         id="g13074"
         transform="translate(15.874998)">
        <path
           d="m 147.28105,-45.901074 0.69144,-4.642557 -6.37117,0.790222 -4.98828,25.978562 7.95162,-0.790222 2.42005,-14.125226 c 0.74084,-4.247445 2.17311,-8.247946 4.74134,-8.247946 1.18533,0 1.62983,0.889 1.62983,2.024945 0,1.629833 -0.74083,3.852334 -1.72861,5.136445 0.54328,0.691445 1.62983,0.938389 2.56822,0.938389 3.40784,0 5.7785,-2.864556 5.7785,-6.568723 0,-3.210279 -1.778,-5.334002 -5.38339,-5.334002 -3.30905,0 -5.92666,1.82739 -7.30955,4.840113 z"
           style="font-style:italic;font-weight:bold;font-size:49.3889px;font-family:Sansita;-inkscape-font-specification:Sansita;text-align:center;letter-spacing:10.5833px;text-anchor:middle;fill:#4f4f4f;fill-opacity:0.9;stroke:#4f4f4f;stroke-width:6;stroke-linejoin:round;stroke-opacity:0.9;filter:url(#filter9402-3)"
           id="path12038"
           transform="matrix(0.6,0,0,0.6,-31.908201,-74.400237)" />
        <path
           d="m 55.825402,-102.57586 0.414867,-2.78553 -3.822696,0.47413 -2.992964,15.587116 4.770962,-0.474133 1.452032,-8.475124 c 0.444499,-2.548459 1.303865,-4.948759 2.844796,-4.948759 0.7112,0 0.977899,0.5334 0.977899,1.21496 0,0.9779 -0.444499,2.311401 -1.037165,3.081867 0.325966,0.414866 0.977899,0.563032 1.540931,0.563032 2.044698,0 3.467097,-1.718729 3.467097,-3.941229 0,-1.92616 -1.066799,-3.2004 -3.23003,-3.2004 -1.985431,0 -3.555996,1.09644 -4.385729,2.90407 z"
           style="font-style:italic;font-weight:bold;font-size:29.6333px;font-family:Sansita;-inkscape-font-specification:Sansita;text-align:center;letter-spacing:6.34998px;text-anchor:middle;fill:#6d8972;stroke:#6d8972;stroke-width:2.4;stroke-linejoin:round"
           id="path12053" />
        <path
           d="m 55.825402,-102.57586 0.414867,-2.78553 -3.822696,0.47413 -2.992964,15.587116 4.770962,-0.474133 1.452032,-8.475124 c 0.444499,-2.548459 1.303865,-4.948759 2.844796,-4.948759 0.7112,0 0.977899,0.5334 0.977899,1.21496 0,0.9779 -0.444499,2.311401 -1.037165,3.081867 0.325966,0.414866 0.977899,0.563032 1.540931,0.563032 2.044698,0 3.467097,-1.718729 3.467097,-3.941229 0,-1.92616 -1.066799,-3.2004 -3.23003,-3.2004 -1.985431,0 -3.555996,1.09644 -4.385729,2.90407 z"
           style="font-style:italic;font-weight:bold;font-size:29.6333px;font-family:Sansita;-inkscape-font-specification:Sansita;text-align:center;letter-spacing:6.34998px;text-anchor:middle;fill:#ffffff;stroke-width:0.2064"
           id="path12068" />
      </g>
      <g
         id="g13069"
         transform="translate(23.812497)">
        <path
           d="m 118.62147,-50.741187 c -10.42106,0 -15.31056,8.643058 -15.31056,17.08856 0,6.963835 3.80294,10.075336 9.72961,10.075336 5.63034,0 9.87778,-2.864556 9.87778,-6.519335 0,-0.938389 -0.34572,-1.778001 -1.23472,-2.173112 -1.23472,2.27189 -3.90172,3.506612 -6.56872,3.506612 -3.21028,0 -4.29684,-1.827389 -4.29684,-4.988279 0,-0.691444 0.0494,-1.629833 0.14817,-2.518834 0.74083,0 1.778,0.04939 2.56822,0 7.70467,-0.197555 12.59417,-3.309056 12.59417,-8.643057 0,-4.543779 -3.50661,-5.827891 -7.50711,-5.827891 z m -1.08656,2.667001 c 1.48167,0 2.17311,0.987778 2.17311,2.765778 0,4.296835 -3.85233,6.76628 -8.39611,6.76628 0.98778,-5.482168 3.21028,-9.532058 6.223,-9.532058 z"
           style="font-style:italic;font-weight:bold;font-size:49.3889px;font-family:Sansita;-inkscape-font-specification:Sansita;text-align:center;letter-spacing:10.5833px;text-anchor:middle;fill:#4f4f4f;fill-opacity:0.9;stroke:#4f4f4f;stroke-width:6;stroke-linejoin:round;stroke-opacity:0.9;filter:url(#filter9402-3)"
           id="path12036"
           transform="matrix(0.6,0,0,0.6,-31.908201,-74.400237)" />
        <path
           d="m 38.629671,-105.47993 c -6.252627,0 -9.186323,5.18583 -9.186323,10.253126 0,4.178295 2.281764,6.045193 5.83776,6.045193 3.378196,0 5.92666,-1.718731 5.92666,-3.911595 0,-0.563033 -0.207433,-1.066799 -0.740833,-1.303866 -0.740832,1.363132 -2.34103,2.103965 -3.941229,2.103965 -1.926164,0 -2.578097,-1.096432 -2.578097,-2.992964 0,-0.414866 0.02963,-0.977899 0.0889,-1.511298 0.4445,0 1.066799,0.02963 1.540932,0 4.622795,-0.118533 7.556492,-1.985431 7.556492,-5.185831 0,-2.72626 -2.103965,-3.49673 -4.504262,-3.49673 z m -0.651933,1.6002 c 0.888999,0 1.303865,0.59267 1.303865,1.65947 0,2.578094 -2.311397,4.059759 -5.037661,4.059759 0.592666,-3.289299 1.926165,-5.719229 3.733796,-5.719229 z"
           style="font-style:italic;font-weight:bold;font-size:29.6333px;font-family:Sansita;-inkscape-font-specification:Sansita;text-align:center;letter-spacing:6.34998px;text-anchor:middle;fill:#6d8972;stroke:#6d8972;stroke-width:2.4;stroke-linejoin:round"
           id="path12051" />
        <path
           d="m 38.629671,-105.47993 c -6.252627,0 -9.186323,5.18583 -9.186323,10.253126 0,4.178295 2.281764,6.045193 5.83776,6.045193 3.378196,0 5.92666,-1.718731 5.92666,-3.911595 0,-0.563033 -0.207433,-1.066799 -0.740833,-1.303866 -0.740832,1.363132 -2.34103,2.103965 -3.941229,2.103965 -1.926164,0 -2.578097,-1.096432 -2.578097,-2.992964 0,-0.414866 0.02963,-0.977899 0.0889,-1.511298 0.4445,0 1.066799,0.02963 1.540932,0 4.622795,-0.118533 7.556492,-1.985431 7.556492,-5.185831 0,-2.72626 -2.103965,-3.49673 -4.504262,-3.49673 z m -0.651933,1.6002 c 0.888999,0 1.303865,0.59267 1.303865,1.65947 0,2.578094 -2.311397,4.059759 -5.037661,4.059759 0.592666,-3.289299 1.926165,-5.719229 3.733796,-5.719229 z"
           style="font-style:italic;font-weight:bold;font-size:29.6333px;font-family:Sansita;-inkscape-font-specification:Sansita;text-align:center;letter-spacing:6.34998px;text-anchor:middle;fill:#ffffff;stroke-width:0.2064"
           id="path12066" />
      </g>
      <g
         id="g13064"
         transform="translate(31.749996)">
        <path
           d="m 58.05666,-23.774847 c 5.778501,0.543278 9.680224,-1.382889 14.37217,-9.828391 0.09878,3.309056 0.148167,6.469946 0.197556,9.779002 5.580945,0.592667 8.939391,-2.321278 13.038669,-7.704668 3.901724,-5.136446 6.519335,-11.557003 6.519335,-15.557504 0,-2.568223 -1.382889,-3.654779 -3.556,-3.654779 -1.679223,0 -3.16089,0.642056 -4.099279,1.580445 0.296333,0.987778 0.345722,1.926167 0.345722,2.864556 0,5.679724 -2.469445,13.730115 -6.27239,18.026949 0.04939,-3.012723 0.04939,-5.482168 0.04939,-7.358946 0,-3.704168 -0.04939,-7.358946 -0.197556,-9.581447 -0.246945,-3.210278 -0.691445,-5.531557 -3.852334,-5.531557 -1.728612,0 -3.111501,0.691445 -3.951112,1.580445 0.296333,0.987778 0.345722,1.926167 0.345722,2.864556 0,5.679724 -2.469445,13.730115 -6.321779,18.026949 0.04939,-2.765778 0.04939,-5.531557 0.04939,-7.902224 0,-3.062112 -0.04939,-6.568724 -0.197556,-8.149169 -0.296333,-4.198056 -1.284111,-6.420557 -5.334001,-6.420557 -1.82739,0 -3.259668,0.444501 -4.445001,1.580445 1.185333,0.740834 1.629833,1.975556 2.024945,4.840112 0.740833,4.889502 1.086555,12.446003 1.284111,20.545783 z"
           style="font-style:italic;font-weight:bold;font-size:49.3889px;font-family:Sansita;-inkscape-font-specification:Sansita;text-align:center;letter-spacing:10.5833px;text-anchor:middle;fill:#4f4f4f;fill-opacity:0.9;stroke:#4f4f4f;stroke-width:6;stroke-linejoin:round;stroke-opacity:0.9;filter:url(#filter9402-3)"
           id="path12034"
           transform="matrix(0.6,0,0,0.6,-31.908201,-74.400237)" />
        <path
           d="m 2.2908294,-89.300144 c 3.4670962,0.325966 5.808127,-0.829732 8.6232906,-5.897027 0.05927,1.985431 0.0889,3.881963 0.118533,5.867394 3.348563,0.355599 5.363628,-1.392765 7.823192,-4.622795 2.34103,-3.081863 3.911595,-6.934188 3.911595,-9.334488 0,-1.54093 -0.829732,-2.19287 -2.133597,-2.19287 -1.007533,0 -1.896532,0.38524 -2.459564,0.94827 0.177799,0.59267 0.207433,1.1557 0.207433,1.71873 0,3.407831 -1.481665,8.238059 -3.763429,10.816156 0.02963,-1.807632 0.02963,-3.289297 0.02963,-4.415362 0,-2.222498 -0.02963,-4.415364 -0.118533,-5.748864 -0.148167,-1.92616 -0.414867,-3.31893 -2.311398,-3.31893 -1.037165,0 -1.866898,0.41487 -2.3706639,0.94827 0.1777999,0.59267 0.2074329,1.1557 0.2074329,1.71873 0,3.407831 -1.4816648,8.238059 -3.7930622,10.816156 0.029633,-1.659465 0.029633,-3.31893 0.029633,-4.741328 0,-1.837265 -0.029633,-3.941228 -0.1185333,-4.889498 -0.1777998,-2.51883 -0.7704658,-3.85233 -3.2003964,-3.85233 -1.0964322,0 -1.9557979,0.2667 -2.66699711,0.94827 0.71119921,0.4445 0.97789891,1.18533 1.21496531,2.90406 0.4444995,2.9337 0.6519326,7.467595 0.7704658,12.327456 z"
           style="font-style:italic;font-weight:bold;font-size:29.6333px;font-family:Sansita;-inkscape-font-specification:Sansita;text-align:center;letter-spacing:6.34998px;text-anchor:middle;fill:#6d8972;stroke:#6d8972;stroke-width:2.4;stroke-linejoin:round"
           id="path12049" />
        <path
           d="m 2.2908294,-89.300144 c 3.4670962,0.325966 5.808127,-0.829732 8.6232906,-5.897027 0.05927,1.985431 0.0889,3.881963 0.118533,5.867394 3.348563,0.355599 5.363628,-1.392765 7.823192,-4.622795 2.34103,-3.081863 3.911595,-6.934188 3.911595,-9.334488 0,-1.54093 -0.829732,-2.19287 -2.133597,-2.19287 -1.007533,0 -1.896532,0.38524 -2.459564,0.94827 0.177799,0.59267 0.207433,1.1557 0.207433,1.71873 0,3.407831 -1.481665,8.238059 -3.763429,10.816156 0.02963,-1.807632 0.02963,-3.289297 0.02963,-4.415362 0,-2.222498 -0.02963,-4.415364 -0.118533,-5.748864 -0.148167,-1.92616 -0.414867,-3.31893 -2.311398,-3.31893 -1.037165,0 -1.866898,0.41487 -2.3706639,0.94827 0.1777999,0.59267 0.2074329,1.1557 0.2074329,1.71873 0,3.407831 -1.4816648,8.238059 -3.7930622,10.816156 0.029633,-1.659465 0.029633,-3.31893 0.029633,-4.741328 0,-1.837265 -0.029633,-3.941228 -0.1185333,-4.889498 -0.1777998,-2.51883 -0.7704658,-3.85233 -3.2003964,-3.85233 -1.0964322,0 -1.9557979,0.2667 -2.66699711,0.94827 0.71119921,0.4445 0.97789891,1.18533 1.21496531,2.90406 0.4444995,2.9337 0.6519326,7.467595 0.7704658,12.327456 z"
           style="font-style:italic;font-weight:bold;font-size:29.6333px;font-family:Sansita;-inkscape-font-specification:Sansita;text-align:center;letter-spacing:6.34998px;text-anchor:middle;fill:#ffffff;stroke-width:0.2064"
           id="path12064" />
      </g>
      <g
         id="g13059"
         transform="translate(39.687495)">
        <path
           d="m 32.706139,-50.741187 c -9.87778,0 -14.915448,8.54428 -14.915448,17.631838 0,5.432779 2.815167,9.532058 9.532057,9.532058 9.877781,0 14.86606,-8.643058 14.86606,-17.730616 0,-5.38339 -2.71639,-9.43328 -9.482669,-9.43328 z m -0.790223,2.963334 c 2.222501,0 2.815168,1.728612 2.815168,4.198057 0,6.815668 -1.975556,17.039171 -6.618113,17.039171 -2.27189,0 -2.864556,-1.778001 -2.864556,-4.198057 0,-6.815668 2.024945,-17.039171 6.667501,-17.039171 z"
           style="font-style:italic;font-weight:bold;font-size:49.3889px;font-family:Sansita;-inkscape-font-specification:Sansita;text-align:center;letter-spacing:10.5833px;text-anchor:middle;fill:#4f4f4f;fill-opacity:0.9;stroke:#4f4f4f;stroke-width:6;stroke-linejoin:round;stroke-opacity:0.9;filter:url(#filter9402-3)"
           id="path12032"
           transform="matrix(0.6,0,0,0.6,-31.908201,-74.400237)" />
        <path
           d="m -12.919472,-105.47993 c -5.92666,0 -8.949257,5.12656 -8.949257,10.579092 0,3.259663 1.689098,5.719227 5.719227,5.719227 5.92666,0 8.9196236,-5.185827 8.9196236,-10.638355 0,-3.230034 -1.6298316,-5.659964 -5.6895936,-5.659964 z m -0.474133,1.778 c 1.333499,0 1.689098,1.03717 1.689098,2.51883 0,4.089398 -1.185332,10.223491 -3.970862,10.223491 -1.363132,0 -1.718732,-1.066799 -1.718732,-2.51883 0,-4.089396 1.214966,-10.223491 4.000496,-10.223491 z"
           style="font-style:italic;font-weight:bold;font-size:29.6333px;font-family:Sansita;-inkscape-font-specification:Sansita;text-align:center;letter-spacing:6.34998px;text-anchor:middle;fill:#6d8972;stroke:#6d8972;stroke-width:2.4;stroke-linejoin:round"
           id="path12047" />
        <path
           d="m -12.919472,-105.47993 c -5.92666,0 -8.949257,5.12656 -8.949257,10.579092 0,3.259663 1.689098,5.719227 5.719227,5.719227 5.92666,0 8.9196236,-5.185827 8.9196236,-10.638355 0,-3.230034 -1.6298316,-5.659964 -5.6895936,-5.659964 z m -0.474133,1.778 c 1.333499,0 1.689098,1.03717 1.689098,2.51883 0,4.089398 -1.185332,10.223491 -3.970862,10.223491 -1.363132,0 -1.718732,-1.066799 -1.718732,-2.51883 0,-4.089396 1.214966,-10.223491 4.000496,-10.223491 z"
           style="font-style:italic;font-weight:bold;font-size:29.6333px;font-family:Sansita;-inkscape-font-specification:Sansita;text-align:center;letter-spacing:6.34998px;text-anchor:middle;fill:#ffffff;stroke-width:0.2064"
           id="path12062" />
      </g>
      <g
         id="g13054"
         transform="translate(47.624994)">
        <path
           d="m -21.339326,-24.565069 h 8.247947 l 5.6797231,-29.485174 c 0.8396113,-0.148167 1.8767783,-0.246944 2.6176118,-0.246944 3.3090563,0 4.69194554,1.629833 4.69194554,5.136445 0,4.93889 -2.71638954,8.050391 -6.86505724,8.346724 -0.5432779,0.09878 -1.0371669,0.09878 -1.5804448,0.04939 0.5926668,2.074334 3.0621119,2.667001 5.3833902,2.667001 6.3711682,0 10.8655582,-4.346223 10.8655582,-11.013725 0,-7.210779 -5.2846124,-8.445502 -14.0758368,-8.445502 -3.5066119,0 -5.580946,0.197556 -8.692446,0.395111 z"
           style="font-style:italic;font-weight:bold;font-size:49.3889px;font-family:Sansita;-inkscape-font-specification:Sansita;text-align:center;letter-spacing:10.5833px;text-anchor:middle;fill:#4f4f4f;fill-opacity:0.9;stroke:#4f4f4f;stroke-width:6;stroke-linejoin:round;stroke-opacity:0.9;filter:url(#filter9402-3)"
           id="path12030"
           transform="matrix(0.6,0,0,0.6,-31.908201,-74.400237)" />
        <path
           d="m -45.346716,-89.774277 h 4.948761 l 3.40783,-17.691083 c 0.503766,-0.0889 1.126065,-0.14816 1.570564,-0.14816 1.985432,0 2.815164,0.9779 2.815164,3.08186 0,2.96333 -1.629831,4.830228 -4.119029,5.008027 -0.325966,0.05927 -0.622299,0.05927 -0.948265,0.02963 0.355599,1.244598 1.837264,1.600198 3.230029,1.600198 3.822696,0 6.519327,-2.607725 6.519327,-6.608225 0,-4.32646 -3.170764,-5.06729 -8.445491,-5.06729 -2.103964,0 -3.348563,0.11853 -5.215461,0.23706 z"
           style="font-style:italic;font-weight:bold;font-size:29.6333px;font-family:Sansita;-inkscape-font-specification:Sansita;text-align:center;letter-spacing:6.34998px;text-anchor:middle;fill:#6d8972;stroke:#6d8972;stroke-width:2.4;stroke-linejoin:round"
           id="path12045" />
        <path
           d="m -45.346716,-89.774277 h 4.948761 l 3.40783,-17.691083 c 0.503766,-0.0889 1.126065,-0.14816 1.570564,-0.14816 1.985432,0 2.815164,0.9779 2.815164,3.08186 0,2.96333 -1.629831,4.830228 -4.119029,5.008027 -0.325966,0.05927 -0.622299,0.05927 -0.948265,0.02963 0.355599,1.244598 1.837264,1.600198 3.230029,1.600198 3.822696,0 6.519327,-2.607725 6.519327,-6.608225 0,-4.32646 -3.170764,-5.06729 -8.445491,-5.06729 -2.103964,0 -3.348563,0.11853 -5.215461,0.23706 z"
           style="font-style:italic;font-weight:bold;font-size:29.6333px;font-family:Sansita;-inkscape-font-specification:Sansita;text-align:center;letter-spacing:6.34998px;text-anchor:middle;fill:#ffffff;stroke-width:0.2064"
           id="path12060" />
      </g>
    </g>
    <g
       id="g15230"
       transform="translate(-107.86016,149.09639)">
      <g
         id="g13135">
        <path
           d="m 241.11271,-50.741187 c -10.42106,0 -15.31056,8.643058 -15.31056,17.08856 0,6.963835 3.80294,10.075336 9.72961,10.075336 5.63034,0 9.87778,-2.864556 9.87778,-6.519335 0,-0.938389 -0.34572,-1.778001 -1.23472,-2.173112 -1.23472,2.27189 -3.90172,3.506612 -6.56873,3.506612 -3.21027,0 -4.29683,-1.827389 -4.29683,-4.988279 0,-0.691444 0.0494,-1.629833 0.14817,-2.518834 0.74083,0 1.778,0.04939 2.56822,0 7.70467,-0.197555 12.59417,-3.309056 12.59417,-8.643057 0,-4.543779 -3.50661,-5.827891 -7.50711,-5.827891 z m -1.08656,2.667001 c 1.48167,0 2.17311,0.987778 2.17311,2.765778 0,4.296835 -3.85233,6.76628 -8.39611,6.76628 0.98778,-5.482168 3.21028,-9.532058 6.223,-9.532058 z"
           style="font-style:italic;font-weight:bold;font-size:49.3889px;font-family:Sansita;-inkscape-font-specification:Sansita;text-align:center;letter-spacing:10.5833px;text-anchor:middle;fill:#cfcfcf;fill-opacity:0.9;stroke:#4f4f4f;stroke-width:6;stroke-linejoin:round;stroke-opacity:0.9;filter:url(#filter9402-3-0)"
           id="path12091"
           transform="matrix(0.6,0,0,0.6,179.85841,-70.599039)" />
        <path
           d="m 323.89096,-101.67873 c -6.25263,0 -9.18632,5.185832 -9.18632,10.253127 0,4.178295 2.28176,6.045193 5.83776,6.045193 3.37819,0 5.92666,-1.718731 5.92666,-3.911596 0,-0.563032 -0.20743,-1.066798 -0.74083,-1.303865 -0.74084,1.363132 -2.34103,2.103965 -3.94123,2.103965 -1.92617,0 -2.5781,-1.096433 -2.5781,-2.992964 0,-0.414866 0.0296,-0.977899 0.0889,-1.511298 0.4445,0 1.0668,0.02963 1.54093,0 4.6228,-0.118533 7.55649,-1.985431 7.55649,-5.185828 0,-2.726264 -2.10396,-3.496734 -4.50426,-3.496734 z m -0.65193,1.6002 c 0.889,0 1.30386,0.592669 1.30386,1.659468 0,2.578097 -2.31139,4.059762 -5.03766,4.059762 0.59267,-3.289296 1.92617,-5.71923 3.7338,-5.71923 z"
           style="font-style:italic;font-weight:bold;font-size:29.6333px;font-family:Sansita;-inkscape-font-specification:Sansita;text-align:center;letter-spacing:6.34998px;text-anchor:middle;fill:#111612;stroke:#6d8972;stroke-width:2.4;stroke-linejoin:round"
           id="path12110" />
        <path
           d="m 323.89096,-101.67873 c -6.25263,0 -9.18632,5.185832 -9.18632,10.253127 0,4.178295 2.28176,6.045193 5.83776,6.045193 3.37819,0 5.92666,-1.718731 5.92666,-3.911596 0,-0.563032 -0.20743,-1.066798 -0.74083,-1.303865 -0.74084,1.363132 -2.34103,2.103965 -3.94123,2.103965 -1.92617,0 -2.5781,-1.096433 -2.5781,-2.992964 0,-0.414866 0.0296,-0.977899 0.0889,-1.511298 0.4445,0 1.0668,0.02963 1.54093,0 4.6228,-0.118533 7.55649,-1.985431 7.55649,-5.185828 0,-2.726264 -2.10396,-3.496734 -4.50426,-3.496734 z m -0.65193,1.6002 c 0.889,0 1.30386,0.592669 1.30386,1.659468 0,2.578097 -2.31139,4.059762 -5.03766,4.059762 0.59267,-3.289296 1.92617,-5.71923 3.7338,-5.71923 z"
           style="font-style:italic;font-weight:bold;font-size:29.6333px;font-family:Sansita;-inkscape-font-specification:Sansita;text-align:center;letter-spacing:6.34998px;text-anchor:middle;fill:#ffffff;stroke-width:0.2064"
           id="path12129" />
      </g>
      <g
         id="g13130"
         transform="translate(7.9374992)">
        <path
           d="m 207.56362,-50.741187 c -9.58144,0 -15.06361,8.050391 -15.06361,17.039171 0,6.914446 3.45722,10.124725 9.43328,10.124725 5.43278,0 10.17411,-2.71639 10.17411,-6.76628 0,-1.3335 -0.54328,-2.2225 -1.778,-2.765778 -0.98778,2.617612 -3.40783,4.346223 -6.17361,4.346223 -3.1115,0 -4.14867,-2.173111 -4.14867,-5.185834 0,-4.543779 2.37067,-13.878281 6.81567,-13.878281 1.38289,0 1.87678,0.889 1.87678,2.271889 0,1.185334 -0.34572,2.963334 -0.79022,4.148668 0.54327,0.4445 1.53105,0.543278 2.17311,0.543278 2.56822,0 4.98828,-1.432279 4.98828,-4.642557 0,-3.704168 -3.21028,-5.235224 -7.50712,-5.235224 z"
           style="font-style:italic;font-weight:bold;font-size:49.3889px;font-family:Sansita;-inkscape-font-specification:Sansita;text-align:center;letter-spacing:10.5833px;text-anchor:middle;fill:#cfcfcf;fill-opacity:0.9;stroke:#4f4f4f;stroke-width:6;stroke-linejoin:round;stroke-opacity:0.9;filter:url(#filter9402-3-0)"
           id="path12089"
           transform="matrix(0.6,0,0,0.6,179.85841,-70.599039)" />
        <path
           d="m 303.76153,-101.67873 c -5.74886,0 -9.03815,4.830233 -9.03815,10.223493 0,4.148663 2.07433,6.074827 5.65996,6.074827 3.25966,0 6.10446,-1.629831 6.10446,-4.059762 0,-0.800099 -0.32597,-1.333499 -1.0668,-1.659465 -0.59267,1.570565 -2.0447,2.607731 -3.70417,2.607731 -1.86689,0 -2.48919,-1.303866 -2.48919,-3.111497 0,-2.726264 1.4224,-8.326958 4.08939,-8.326958 0.82974,0 1.12607,0.5334 1.12607,1.363132 0,0.7112 -0.20743,1.777998 -0.47413,2.489198 0.32596,0.266699 0.91863,0.325966 1.30386,0.325966 1.54093,0 2.99296,-0.859366 2.99296,-2.78553 0,-2.222495 -1.92616,-3.141135 -4.50426,-3.141135 z"
           style="font-style:italic;font-weight:bold;font-size:29.6333px;font-family:Sansita;-inkscape-font-specification:Sansita;text-align:center;letter-spacing:6.34998px;text-anchor:middle;fill:#111612;stroke:#6d8972;stroke-width:2.4;stroke-linejoin:round"
           id="path12108" />
        <path
           d="m 303.76153,-101.67873 c -5.74886,0 -9.03815,4.830233 -9.03815,10.223493 0,4.148663 2.07433,6.074827 5.65996,6.074827 3.25966,0 6.10446,-1.629831 6.10446,-4.059762 0,-0.800099 -0.32597,-1.333499 -1.0668,-1.659465 -0.59267,1.570565 -2.0447,2.607731 -3.70417,2.607731 -1.86689,0 -2.48919,-1.303866 -2.48919,-3.111497 0,-2.726264 1.4224,-8.326958 4.08939,-8.326958 0.82974,0 1.12607,0.5334 1.12607,1.363132 0,0.7112 -0.20743,1.777998 -0.47413,2.489198 0.32596,0.266699 0.91863,0.325966 1.30386,0.325966 1.54093,0 2.99296,-0.859366 2.99296,-2.78553 0,-2.222495 -1.92616,-3.141135 -4.50426,-3.141135 z"
           style="font-style:italic;font-weight:bold;font-size:29.6333px;font-family:Sansita;-inkscape-font-specification:Sansita;text-align:center;letter-spacing:6.34998px;text-anchor:middle;fill:#ffffff;stroke-width:0.2064"
           id="path12127" />
      </g>
      <g
         id="g13125"
         transform="translate(15.874998)">
        <path
           d="m 163.93919,-45.901074 0.69145,-4.642557 -6.37117,0.790222 -5.08706,25.978562 7.75406,-0.790222 2.76578,-14.37217 c 0.74083,-3.556001 2.27189,-8.001002 5.58095,-8.001002 1.67922,0 2.42005,1.185333 2.42005,2.864556 0,3.654779 -2.96333,12.14967 -2.96333,16.100782 0,3.012723 1.82739,4.395612 4.49439,4.395612 2.17311,0 4.39561,-0.938389 5.03766,-3.012723 -1.48166,-0.148167 -1.92616,-1.037167 -1.92616,-2.321278 0,-3.259668 2.91394,-11.013725 2.91394,-15.804449 0,-4.099278 -2.27189,-6.025446 -6.56872,-6.025446 -3.65478,0 -6.96384,1.38289 -8.74184,4.840113 z"
           style="font-style:italic;font-weight:bold;font-size:49.3889px;font-family:Sansita;-inkscape-font-specification:Sansita;text-align:center;letter-spacing:10.5833px;text-anchor:middle;fill:#cfcfcf;fill-opacity:0.9;stroke:#4f4f4f;stroke-width:6;stroke-linejoin:round;stroke-opacity:0.9;filter:url(#filter9402-3-0)"
           id="path12087"
           transform="matrix(0.6,0,0,0.6,179.85841,-70.599039)" />
        <path
           d="m 277.5869,-98.774662 0.41487,-2.785528 -3.8227,0.47413 -3.05223,15.587117 4.65243,-0.474133 1.65946,-8.62329 c 0.4445,-2.133598 1.36314,-4.800595 3.34857,-4.800595 1.00753,0 1.45203,0.711199 1.45203,1.718731 0,2.192865 -1.778,7.289792 -1.778,9.660456 0,1.807632 1.09643,2.637364 2.69663,2.637364 1.30387,0 2.63736,-0.563033 3.0226,-1.807631 -0.889,-0.0889 -1.1557,-0.6223 -1.1557,-1.392765 0,-1.955798 1.74836,-6.608226 1.74836,-9.482657 0,-2.459567 -1.36313,-3.615267 -3.94123,-3.615267 -2.19286,0 -4.17829,0.82974 -5.24509,2.904068 z"
           style="font-style:italic;font-weight:bold;font-size:29.6333px;font-family:Sansita;-inkscape-font-specification:Sansita;text-align:center;letter-spacing:6.34998px;text-anchor:middle;fill:#111612;stroke:#6d8972;stroke-width:2.4;stroke-linejoin:round"
           id="path12106" />
        <path
           d="m 277.5869,-98.774662 0.41487,-2.785528 -3.8227,0.47413 -3.05223,15.587117 4.65243,-0.474133 1.65946,-8.62329 c 0.4445,-2.133598 1.36314,-4.800595 3.34857,-4.800595 1.00753,0 1.45203,0.711199 1.45203,1.718731 0,2.192865 -1.778,7.289792 -1.778,9.660456 0,1.807632 1.09643,2.637364 2.69663,2.637364 1.30387,0 2.63736,-0.563033 3.0226,-1.807631 -0.889,-0.0889 -1.1557,-0.6223 -1.1557,-1.392765 0,-1.955798 1.74836,-6.608226 1.74836,-9.482657 0,-2.459567 -1.36313,-3.615267 -3.94123,-3.615267 -2.19286,0 -4.17829,0.82974 -5.24509,2.904068 z"
           style="font-style:italic;font-weight:bold;font-size:29.6333px;font-family:Sansita;-inkscape-font-specification:Sansita;text-align:center;letter-spacing:6.34998px;text-anchor:middle;fill:#ffffff;stroke-width:0.2064"
           id="path12125" />
      </g>
      <g
         id="g13120"
         transform="translate(23.812497)">
        <path
           d="m 135.18084,-50.741187 c -10.42106,0 -15.31056,8.643058 -15.31056,17.08856 0,6.963835 3.80294,10.075336 9.72961,10.075336 5.63034,0 9.87778,-2.864556 9.87778,-6.519335 0,-0.938389 -0.34572,-1.778001 -1.23472,-2.173112 -1.23472,2.27189 -3.90172,3.506612 -6.56872,3.506612 -3.21028,0 -4.29684,-1.827389 -4.29684,-4.988279 0,-0.691444 0.0494,-1.629833 0.14817,-2.518834 0.74083,0 1.778,0.04939 2.56822,0 7.70467,-0.197555 12.59417,-3.309056 12.59417,-8.643057 0,-4.543779 -3.50661,-5.827891 -7.50711,-5.827891 z m -1.08656,2.667001 c 1.48167,0 2.17311,0.987778 2.17311,2.765778 0,4.296835 -3.85233,6.76628 -8.39611,6.76628 0.98778,-5.482168 3.21028,-9.532058 6.223,-9.532058 z"
           style="font-style:italic;font-weight:bold;font-size:49.3889px;font-family:Sansita;-inkscape-font-specification:Sansita;text-align:center;letter-spacing:10.5833px;text-anchor:middle;fill:#cfcfcf;fill-opacity:0.9;stroke:#4f4f4f;stroke-width:6;stroke-linejoin:round;stroke-opacity:0.9;filter:url(#filter9402-3-0)"
           id="path12085"
           transform="matrix(0.6,0,0,0.6,179.85841,-70.599039)" />
        <path
           d="m 260.3319,-101.67873 c -6.25262,0 -9.18632,5.185832 -9.18632,10.253127 0,4.178295 2.28176,6.045193 5.83776,6.045193 3.3782,0 5.92666,-1.718731 5.92666,-3.911596 0,-0.563032 -0.20743,-1.066798 -0.74083,-1.303865 -0.74084,1.363132 -2.34103,2.103965 -3.94123,2.103965 -1.92617,0 -2.5781,-1.096433 -2.5781,-2.992964 0,-0.414866 0.0296,-0.977899 0.0889,-1.511298 0.4445,0 1.0668,0.02963 1.54093,0 4.6228,-0.118533 7.55649,-1.985431 7.55649,-5.185828 0,-2.726264 -2.10396,-3.496734 -4.50426,-3.496734 z m -0.65193,1.6002 c 0.889,0 1.30386,0.592669 1.30386,1.659468 0,2.578097 -2.31139,4.059762 -5.03766,4.059762 0.59267,-3.289296 1.92617,-5.71923 3.7338,-5.71923 z"
           style="font-style:italic;font-weight:bold;font-size:29.6333px;font-family:Sansita;-inkscape-font-specification:Sansita;text-align:center;letter-spacing:6.34998px;text-anchor:middle;fill:#111612;stroke:#6d8972;stroke-width:2.4;stroke-linejoin:round"
           id="path12104" />
        <path
           d="m 260.3319,-101.67873 c -6.25262,0 -9.18632,5.185832 -9.18632,10.253127 0,4.178295 2.28176,6.045193 5.83776,6.045193 3.3782,0 5.92666,-1.718731 5.92666,-3.911596 0,-0.563032 -0.20743,-1.066798 -0.74083,-1.303865 -0.74084,1.363132 -2.34103,2.103965 -3.94123,2.103965 -1.92617,0 -2.5781,-1.096433 -2.5781,-2.992964 0,-0.414866 0.0296,-0.977899 0.0889,-1.511298 0.4445,0 1.0668,0.02963 1.54093,0 4.6228,-0.118533 7.55649,-1.985431 7.55649,-5.185828 0,-2.726264 -2.10396,-3.496734 -4.50426,-3.496734 z m -0.65193,1.6002 c 0.889,0 1.30386,0.592669 1.30386,1.659468 0,2.578097 -2.31139,4.059762 -5.03766,4.059762 0.59267,-3.289296 1.92617,-5.71923 3.7338,-5.71923 z"
           style="font-style:italic;font-weight:bold;font-size:29.6333px;font-family:Sansita;-inkscape-font-specification:Sansita;text-align:center;letter-spacing:6.34998px;text-anchor:middle;fill:#ffffff;stroke-width:0.2064"
           id="path12123" />
      </g>
      <g
         id="g13115"
         transform="translate(31.749996)">
        <path
           d="m 96.890396,-45.901074 0.691445,-4.642557 -6.371168,0.790222 -4.988279,25.978562 7.951613,-0.790222 2.420056,-14.125226 c 0.740833,-4.247445 2.173111,-8.247946 4.741337,-8.247946 1.18533,0 1.62983,0.889 1.62983,2.024945 0,1.629833 -0.74083,3.852334 -1.72861,5.136445 0.54328,0.691445 1.62983,0.938389 2.56822,0.938389 3.40784,0 5.7785,-2.864556 5.7785,-6.568723 0,-3.210279 -1.778,-5.334002 -5.38339,-5.334002 -3.30905,0 -5.926665,1.82739 -7.309554,4.840113 z"
           style="font-style:italic;font-weight:bold;font-size:49.3889px;font-family:Sansita;-inkscape-font-specification:Sansita;text-align:center;letter-spacing:10.5833px;text-anchor:middle;fill:#cfcfcf;fill-opacity:0.9;stroke:#4f4f4f;stroke-width:6;stroke-linejoin:round;stroke-opacity:0.9;filter:url(#filter9402-3-0)"
           id="path12083"
           transform="matrix(0.6,0,0,0.6,179.85841,-70.599039)" />
        <path
           d="m 237.35766,-98.774662 0.41486,-2.785528 -3.82269,0.47413 -2.99296,15.587117 4.77096,-0.474133 1.45203,-8.475124 c 0.4445,-2.548464 1.30386,-4.948761 2.8448,-4.948761 0.71119,0 0.97789,0.533399 0.97789,1.214965 0,0.977899 -0.44449,2.311398 -1.03716,3.081863 0.32597,0.414867 0.9779,0.563033 1.54093,0.563033 2.0447,0 3.4671,-1.718731 3.4671,-3.941229 0,-1.926161 -1.0668,-3.200401 -3.23003,-3.200401 -1.98543,0 -3.556,1.09644 -4.38573,2.904068 z"
           style="font-style:italic;font-weight:bold;font-size:29.6333px;font-family:Sansita;-inkscape-font-specification:Sansita;text-align:center;letter-spacing:6.34998px;text-anchor:middle;fill:#111612;stroke:#6d8972;stroke-width:2.4;stroke-linejoin:round"
           id="path12102" />
        <path
           d="m 237.35766,-98.774662 0.41486,-2.785528 -3.82269,0.47413 -2.99296,15.587117 4.77096,-0.474133 1.45203,-8.475124 c 0.4445,-2.548464 1.30386,-4.948761 2.8448,-4.948761 0.71119,0 0.97789,0.533399 0.97789,1.214965 0,0.977899 -0.44449,2.311398 -1.03716,3.081863 0.32597,0.414867 0.9779,0.563033 1.54093,0.563033 2.0447,0 3.4671,-1.718731 3.4671,-3.941229 0,-1.926161 -1.0668,-3.200401 -3.23003,-3.200401 -1.98543,0 -3.556,1.09644 -4.38573,2.904068 z"
           style="font-style:italic;font-weight:bold;font-size:29.6333px;font-family:Sansita;-inkscape-font-specification:Sansita;text-align:center;letter-spacing:6.34998px;text-anchor:middle;fill:#ffffff;stroke-width:0.2064"
           id="path12121" />
      </g>
      <path
         d="m 68.230817,-50.741187 c -10.421058,0 -15.310559,8.643058 -15.310559,17.08856 0,6.963835 3.802946,10.075336 9.729614,10.075336 5.630334,0 9.87778,-2.864556 9.87778,-6.519335 0,-0.938389 -0.345722,-1.778001 -1.234723,-2.173112 -1.234722,2.27189 -3.901723,3.506612 -6.568723,3.506612 -3.210279,0 -4.296835,-1.827389 -4.296835,-4.988279 0,-0.691444 0.04939,-1.629833 0.148167,-2.518834 0.740833,0 1.778,0.04939 2.568223,0 7.704668,-0.197555 12.594169,-3.309056 12.594169,-8.643057 0,-4.543779 -3.506612,-5.827891 -7.507113,-5.827891 z m -1.086555,2.667001 c 1.481667,0 2.173111,0.987778 2.173111,2.765778 0,4.296835 -3.852334,6.76628 -8.396113,6.76628 0.987778,-5.482168 3.210279,-9.532058 6.223002,-9.532058 z"
         style="font-style:italic;font-weight:bold;font-size:49.3889px;font-family:Sansita;-inkscape-font-specification:Sansita;text-align:center;letter-spacing:10.5833px;text-anchor:middle;fill:#cfcfcf;fill-opacity:0.9;stroke:#4f4f4f;stroke-width:6;stroke-linejoin:round;stroke-opacity:0.9;filter:url(#filter9402-3-0)"
         id="path12081"
         transform="matrix(0.6,0,0,0.6,219.54586,-70.599039)" />
      <g
         id="g13110"
         transform="translate(39.687495)">
        <path
           d="m 220.16193,-101.67873 c -6.25263,0 -9.18633,5.185832 -9.18633,10.253127 0,4.178295 2.28177,6.045193 5.83776,6.045193 3.3782,0 5.92666,-1.718731 5.92666,-3.911596 0,-0.563032 -0.20743,-1.066798 -0.74083,-1.303865 -0.74083,1.363132 -2.34103,2.103965 -3.94123,2.103965 -1.92616,0 -2.57809,-1.096433 -2.57809,-2.992964 0,-0.414866 0.0296,-0.977899 0.0889,-1.511298 0.44449,0 1.06679,0.02963 1.54093,0 4.62279,-0.118533 7.55649,-1.985431 7.55649,-5.185828 0,-2.726264 -2.10397,-3.496734 -4.50426,-3.496734 z m -0.65194,1.6002 c 0.889,0 1.30387,0.592669 1.30387,1.659468 0,2.578097 -2.3114,4.059762 -5.03766,4.059762 0.59266,-3.289296 1.92616,-5.71923 3.73379,-5.71923 z"
           style="font-style:italic;font-weight:bold;font-size:29.6333px;font-family:Sansita;-inkscape-font-specification:Sansita;text-align:center;letter-spacing:6.34998px;text-anchor:middle;fill:#111612;stroke:#6d8972;stroke-width:2.4;stroke-linejoin:round"
           id="path12100" />
        <path
           d="m 220.16193,-101.67873 c -6.25263,0 -9.18633,5.185832 -9.18633,10.253127 0,4.178295 2.28177,6.045193 5.83776,6.045193 3.3782,0 5.92666,-1.718731 5.92666,-3.911596 0,-0.563032 -0.20743,-1.066798 -0.74083,-1.303865 -0.74083,1.363132 -2.34103,2.103965 -3.94123,2.103965 -1.92616,0 -2.57809,-1.096433 -2.57809,-2.992964 0,-0.414866 0.0296,-0.977899 0.0889,-1.511298 0.44449,0 1.06679,0.02963 1.54093,0 4.62279,-0.118533 7.55649,-1.985431 7.55649,-5.185828 0,-2.726264 -2.10397,-3.496734 -4.50426,-3.496734 z m -0.65194,1.6002 c 0.889,0 1.30387,0.592669 1.30387,1.659468 0,2.578097 -2.3114,4.059762 -5.03766,4.059762 0.59266,-3.289296 1.92616,-5.71923 3.73379,-5.71923 z"
           style="font-style:italic;font-weight:bold;font-size:29.6333px;font-family:Sansita;-inkscape-font-specification:Sansita;text-align:center;letter-spacing:6.34998px;text-anchor:middle;fill:#ffffff;stroke-width:0.2064"
           id="path12119" />
      </g>
      <g
         id="g13106"
         transform="translate(47.624994)">
        <path
           d="m 18.679705,-17.897568 c 0,1.629834 1.580444,3.210279 4.691945,3.210279 7.951613,0 10.075336,-5.531557 11.606392,-13.335003 l 3.802945,-19.508616 h 4.642557 l 0.296333,-2.222501 h -4.49439 l 0.592667,-3.358445 c 0.493889,-2.716389 1.432278,-4.840112 3.60539,-4.840112 1.284111,0 1.778,0.790222 1.778,1.975556 0,0.938389 -0.296333,2.024945 -0.691444,2.765778 0.691444,0.395112 1.629833,0.543278 2.469445,0.543278 2.2225,0 4.346223,-1.086556 4.346223,-3.407834 0,-3.16089 -4.099279,-4.04989 -7.803446,-4.04989 -5.432779,0 -9.729614,1.876778 -11.161892,7.556502 l -0.691444,2.815167 h -3.457223 l -0.444501,2.222501 h 3.457223 l -5.087056,26.176117 c -0.395112,2.074334 -1.086556,2.765779 -1.926167,2.765779 -0.740834,0 -1.82739,-0.493889 -2.123723,-1.778001 -2.024945,-0.4445 -3.407834,0.592667 -3.407834,2.469445 z"
           style="font-style:italic;font-weight:bold;font-size:49.3889px;font-family:Sansita;-inkscape-font-specification:Sansita;text-align:center;letter-spacing:10.5833px;text-anchor:middle;fill:#cfcfcf;fill-opacity:0.9;stroke:#4f4f4f;stroke-width:6;stroke-linejoin:round;stroke-opacity:0.9;filter:url(#filter9402-3-0)"
           id="path12079"
           transform="matrix(0.6,0,0,0.6,179.85841,-70.599039)" />
        <path
           d="m 190.43129,-81.97258 c 0,0.977899 0.94826,1.926164 2.81516,1.926164 4.77096,0 6.04519,-3.318929 6.96383,-8.000991 l 2.28176,-11.705154 h 2.78553 l 0.1778,-1.333499 h -2.69663 l 0.3556,-2.01506 c 0.29633,-1.62984 0.85937,-2.90407 2.16323,-2.90407 0.77047,0 1.0668,0.47414 1.0668,1.18533 0,0.56304 -0.1778,1.21497 -0.41487,1.65947 0.41487,0.23707 0.9779,0.32597 1.48167,0.32597 1.3335,0 2.60773,-0.65194 2.60773,-2.0447 0,-1.89653 -2.45957,-2.42993 -4.68206,-2.42993 -3.25967,0 -5.83776,1.12606 -6.69713,4.53389 l -0.41487,1.6891 h -2.07433 l -0.2667,1.333499 h 2.07434 l -3.05223,15.70565 c -0.23707,1.244598 -0.65194,1.659465 -1.1557,1.659465 -0.4445,0 -1.09644,-0.296333 -1.27424,-1.066799 -1.21496,-0.2667 -2.04469,0.355599 -2.04469,1.481665 z"
           style="font-style:italic;font-weight:bold;font-size:29.6333px;font-family:Sansita;-inkscape-font-specification:Sansita;text-align:center;letter-spacing:6.34998px;text-anchor:middle;fill:#111612;stroke:#6d8972;stroke-width:2.4;stroke-linejoin:round"
           id="path12098" />
        <path
           d="m 190.43129,-81.97258 c 0,0.977899 0.94826,1.926164 2.81516,1.926164 4.77096,0 6.04519,-3.318929 6.96383,-8.000991 l 2.28176,-11.705154 h 2.78553 l 0.1778,-1.333499 h -2.69663 l 0.3556,-2.01506 c 0.29633,-1.62984 0.85937,-2.90407 2.16323,-2.90407 0.77047,0 1.0668,0.47414 1.0668,1.18533 0,0.56304 -0.1778,1.21497 -0.41487,1.65947 0.41487,0.23707 0.9779,0.32597 1.48167,0.32597 1.3335,0 2.60773,-0.65194 2.60773,-2.0447 0,-1.89653 -2.45957,-2.42993 -4.68206,-2.42993 -3.25967,0 -5.83776,1.12606 -6.69713,4.53389 l -0.41487,1.6891 h -2.07433 l -0.2667,1.333499 h 2.07434 l -3.05223,15.70565 c -0.23707,1.244598 -0.65194,1.659465 -1.1557,1.659465 -0.4445,0 -1.09644,-0.296333 -1.27424,-1.066799 -1.21496,-0.2667 -2.04469,0.355599 -2.04469,1.481665 z"
           style="font-style:italic;font-weight:bold;font-size:29.6333px;font-family:Sansita;-inkscape-font-specification:Sansita;text-align:center;letter-spacing:6.34998px;text-anchor:middle;fill:#ffffff;stroke-width:0.2064"
           id="path12117" />
      </g>
      <g
         id="g13101"
         transform="translate(55.562493)">
        <path
           d="m -1.5343895,-45.901074 0.69144462,-4.642557 -6.37116822,0.790222 -5.0870569,25.978562 7.7540576,-0.790222 2.7657784,-14.37217 c 0.7408335,-3.556001 2.27188944,-8.001002 5.5809458,-8.001002 1.6792226,0 2.4200561,1.185333 2.4200561,2.864556 0,3.654779 -2.963334,12.14967 -2.963334,16.100782 0,3.012723 1.8273893,4.395612 4.49439,4.395612 2.1731116,0 4.3956121,-0.938389 5.0376681,-3.012723 -1.481667,-0.148167 -1.926167,-1.037167 -1.926167,-2.321278 0,-3.259668 2.913945,-11.013725 2.913945,-15.804449 0,-4.099278 -2.27189,-6.025446 -6.5687241,-6.025446 -3.6547786,0 -6.96383496,1.38289 -8.7418354,4.840113 z"
           style="font-style:italic;font-weight:bold;font-size:49.3889px;font-family:Sansita;-inkscape-font-specification:Sansita;text-align:center;letter-spacing:10.5833px;text-anchor:middle;fill:#cfcfcf;fill-opacity:0.9;stroke:#4f4f4f;stroke-width:6;stroke-linejoin:round;stroke-opacity:0.9;filter:url(#filter9402-3-0)"
           id="path12077"
           transform="matrix(0.6,0,0,0.6,179.85841,-70.599039)" />
        <path
           d="m 178.30284,-98.774662 0.41487,-2.785528 -3.8227,0.47413 -3.05223,15.587117 4.65243,-0.474133 1.65946,-8.62329 c 0.4445,-2.133598 1.36313,-4.800595 3.34857,-4.800595 1.00753,0 1.45203,0.711199 1.45203,1.718731 0,2.192865 -1.778,7.289792 -1.778,9.660456 0,1.807632 1.09643,2.637364 2.69663,2.637364 1.30386,0 2.63736,-0.563033 3.0226,-1.807631 -0.889,-0.0889 -1.1557,-0.6223 -1.1557,-1.392765 0,-1.955798 1.74836,-6.608226 1.74836,-9.482657 0,-2.459567 -1.36313,-3.615267 -3.94123,-3.615267 -2.19286,0 -4.17829,0.82974 -5.24509,2.904068 z"
           style="font-style:italic;font-weight:bold;font-size:29.6333px;font-family:Sansita;-inkscape-font-specification:Sansita;text-align:center;letter-spacing:6.34998px;text-anchor:middle;fill:#111612;stroke:#6d8972;stroke-width:2.4;stroke-linejoin:round"
           id="path12096" />
        <path
           d="m 178.30284,-98.774662 0.41487,-2.785528 -3.8227,0.47413 -3.05223,15.587117 4.65243,-0.474133 1.65946,-8.62329 c 0.4445,-2.133598 1.36313,-4.800595 3.34857,-4.800595 1.00753,0 1.45203,0.711199 1.45203,1.718731 0,2.192865 -1.778,7.289792 -1.778,9.660456 0,1.807632 1.09643,2.637364 2.69663,2.637364 1.30386,0 2.63736,-0.563033 3.0226,-1.807631 -0.889,-0.0889 -1.1557,-0.6223 -1.1557,-1.392765 0,-1.955798 1.74836,-6.608226 1.74836,-9.482657 0,-2.459567 -1.36313,-3.615267 -3.94123,-3.615267 -2.19286,0 -4.17829,0.82974 -5.24509,2.904068 z"
           style="font-style:italic;font-weight:bold;font-size:29.6333px;font-family:Sansita;-inkscape-font-specification:Sansita;text-align:center;letter-spacing:6.34998px;text-anchor:middle;fill:#ffffff;stroke-width:0.2064"
           id="path12115" />
      </g>
      <g
         id="g13089"
         transform="translate(63.499992)">
        <path
           d="m -30.243401,-24.565069 6.371168,-32.596675 h -8.346724 l -6.272391,32.596675 z"
           style="font-style:italic;font-weight:bold;font-size:49.3889px;font-family:Sansita;-inkscape-font-specification:Sansita;text-align:center;letter-spacing:10.5833px;text-anchor:middle;fill:#cfcfcf;fill-opacity:0.9;stroke:#4f4f4f;stroke-width:6;stroke-linejoin:round;stroke-opacity:0.9;filter:url(#filter9402-3-0)"
           id="path12075"
           transform="matrix(0.6,0,0,0.6,179.85841,-70.599039)" />
        <path
           d="m 161.07745,-85.973076 3.82269,-19.557974 h -5.00803 l -3.76343,19.557974 z"
           style="font-style:italic;font-weight:bold;font-size:29.6333px;font-family:Sansita;-inkscape-font-specification:Sansita;text-align:center;letter-spacing:6.34998px;text-anchor:middle;fill:#111612;stroke:#6d8972;stroke-width:2.4;stroke-linejoin:round"
           id="path12094" />
        <path
           d="m 161.07745,-85.973076 3.82269,-19.557974 h -5.00803 l -3.76343,19.557974 z"
           style="font-style:italic;font-weight:bold;font-size:29.6333px;font-family:Sansita;-inkscape-font-specification:Sansita;text-align:center;letter-spacing:6.34998px;text-anchor:middle;fill:#ffffff;stroke-width:0.2064"
           id="path12113" />
      </g>
    </g>
  </g>
</svg>
